<svg width="967" height="286" viewBox="0 0 967 286" fill="none" xmlns="http://www.w3.org/2000/svg">
<path d="M400.05 45.803C390.94 29.193 382.45 14.023 376.87 7.26301C365.32 -6.73699 344.05 -3.67699 328.25 45.033C324.036 58.3584 320.587 71.9139 317.92 85.633C342 61.973 369.52 40.723 400.05 45.803Z" fill="#281A42"/>
<path d="M896.67 182.573C879.562 177.715 862.083 174.277 844.41 172.293C860.63 175.393 875.3 179.293 887.74 184.133C902.5 189.893 912.94 195.233 919.97 200.213L920.26 200.423C926.18 204.663 929.62 208.633 931.16 212.423C934.49 218.303 935.86 225.713 929.86 233.273C923.32 241.523 892.4 254.823 883.08 266.083C874.8 276.083 873.61 283.283 873.44 284.763L899.09 283.513C899.09 283.513 896.47 277.403 906.37 265.463C916.27 253.523 947.21 246.713 962 230.973C976.79 215.233 950.23 197.323 896.67 182.573Z" fill="#E6E7E8"/>
<path d="M919.97 200.213L920.26 200.423L919.97 200.213Z" fill="#3F499E"/>
<path d="M929.86 233.223C935.86 225.663 934.49 218.223 931.16 212.373C939.25 232.063 894.45 245.233 879.76 256.443C858.96 272.323 855.13 285.013 855.13 285.013H873.42V284.713C873.59 283.233 874.78 276.033 883.06 266.033C892.4 254.773 923.32 241.513 929.86 233.223Z" fill="#3F499E"/>
<path d="M879.76 256.443C894.45 245.233 939.25 232.063 931.16 212.373C929.62 208.633 926.16 204.663 920.26 200.373L919.97 200.163C912.97 195.163 902.5 189.843 887.74 184.083C875.3 179.223 860.63 175.343 844.41 172.243C741.46 152.563 575.46 164.543 513.05 161.713C485.96 160.473 470.05 154.013 460.8 146.413C461.127 149.946 461.4 153.42 461.62 156.833C473.5 164.353 502.26 172.833 571.62 172.833C696.21 172.833 789.95 183.893 833.62 200.203C840.265 202.585 846.714 205.48 852.91 208.863C861.91 212.223 870.69 217.173 872.63 224.073C876.9 239.203 863.71 244.643 849.34 255.893C834.97 267.143 832.65 272.783 831.1 276.893C830.2 279.525 830.2 282.381 831.1 285.013H855.16C855.16 285.013 859 272.323 879.76 256.443Z" fill="#C4C4C4"/>
<path d="M831.07 276.893C832.62 272.823 834.95 267.193 849.31 255.893C863.67 244.593 876.87 239.203 872.6 224.073C870.66 217.173 861.88 212.223 852.88 208.863C875.03 221.363 868.88 232.033 852.22 240.763C831.85 251.433 822.53 259.393 815.93 267.923C812.048 272.803 809.749 278.751 809.34 284.973H831.07C830.179 282.353 830.179 279.513 831.07 276.893Z" fill="#3F499E"/>
<path d="M852.22 240.803C868.88 232.073 875.03 221.403 852.88 208.903C846.684 205.52 840.235 202.625 833.59 200.243C789.93 183.933 696.19 172.873 571.59 172.873C502.25 172.873 473.49 164.403 461.59 156.873C461.37 153.453 461.097 149.98 460.77 146.453C457.18 108.363 446.56 65.623 416.69 51.173C411.419 48.5916 405.805 46.7798 400.02 45.793C369.49 40.713 341.95 61.963 317.89 85.623C305.89 97.433 294.74 109.843 284.53 119.883C250.18 153.653 209.42 186.253 127.33 174.613C45.24 162.973 19.04 183.343 19.04 183.343H19.48C21.8 183.283 32.71 183.193 39.71 186.563C47.57 190.353 62.71 201.413 87.16 230.563C111.61 259.713 126.16 276.563 168.67 284.123C170.725 284.492 172.798 284.753 174.88 284.903C176.8 285.043 178.69 285.083 180.55 285.043C217.1 284.283 243.77 250.943 243.77 250.943H429C432.912 250.989 436.813 250.515 440.6 249.533C458.47 244.693 462.19 228.023 462.19 211.353C462.19 209.453 462.26 206.693 462.33 203.223C462.52 195.223 462.75 183.453 462.33 169.903C472.79 177.903 495.62 186.363 545.48 185.733C638 184.513 689.12 191.013 729 200.823C752.67 206.643 792 223.123 779.85 240.823C768.85 256.723 750.35 272.673 749.18 276.453C747.18 282.933 749.96 285.033 749.96 285.033H809.35C809.759 278.811 812.058 272.862 815.94 267.983C822.53 259.433 831.85 251.513 852.22 240.803ZM437.1 210.913C434.38 241.573 408.38 240.793 408.38 240.793H249.24C265.336 216.79 279.856 191.767 292.71 165.883C312.8 124.883 317.55 116.203 335.79 92.143C354.03 68.083 391.26 44.443 412.65 63.413C438 85.923 439.82 180.243 437.1 210.913Z" fill="#E6E7E8"/>
<path d="M749.17 276.433C750.34 272.653 768.89 256.703 779.84 240.803C792 223.123 752.66 206.643 728.99 200.803C689.12 191.013 638 184.513 545.4 185.683C495.54 186.313 472.71 177.813 462.25 169.853C462.7 183.403 462.47 195.173 462.25 203.173C491.97 203.343 598.67 204.683 624.16 215.173C653.85 227.393 634.9 242.253 618.34 252.823C600.09 264.463 593.17 268.443 586.9 274.173C583.62 277.173 577.97 285.003 577.97 285.003H750C750 285.003 747.18 282.913 749.17 276.433Z" fill="#C4C4C4"/>
<path d="M87.19 230.513C62.73 201.403 47.6 190.343 39.74 186.513C32.74 183.143 21.83 183.233 19.51 183.293C9.88 189.543 3.64 203.113 1.36 214.783C0.633897 218.892 0.179577 223.044 0 227.213C0 243.313 3.1 285.013 37.65 285.013H172.87C173.324 285.016 173.778 284.996 174.23 284.953C157 284.203 76 280.513 52.84 277.153C33.91 274.433 27.78 250.813 30.69 226.653C32.69 209.723 41.93 196.333 47.07 191.653C55.79 197.883 68.6 209.473 86.32 230.573C110.77 259.683 125.32 276.573 167.83 284.143C169.994 284.526 172.177 284.79 174.37 284.933L174.91 284.853C172.828 284.703 170.755 284.442 168.7 284.073C126.2 276.513 111.64 259.623 87.19 230.513Z" fill="#24183A"/>
<path d="M586.93 274.183C593.2 268.453 600.12 264.473 618.37 252.833C634.93 242.263 653.88 227.403 624.19 215.183C598.7 204.683 492 203.343 462.28 203.183C462.21 206.653 462.14 209.413 462.14 211.313C462.14 227.983 458.42 244.653 440.55 249.493V285.013H578C578 285.013 583.65 277.163 586.93 274.183Z" fill="#281A42"/>
<path d="M243.8 250.893C243.8 250.893 217.13 284.233 180.58 284.993H428.38V250.893H243.8Z" fill="#281A42"/>
<path d="M429 250.893H428.42V285.013H440.6V249.513C436.812 250.484 432.911 250.949 429 250.893Z" fill="#282B6E"/>
<path d="M86.32 230.573C68.6 209.513 55.79 197.883 47.07 191.653C41.93 196.333 32.73 209.723 30.69 226.653C27.78 250.813 33.91 274.433 52.84 277.153C76 280.513 157 284.203 174.23 284.953L175.64 285.013L174.37 284.933C172.177 284.79 169.994 284.526 167.83 284.143C125.33 276.573 110.77 259.683 86.32 230.573Z" fill="#281A42"/>
<path d="M412.65 63.413C391.26 44.413 354.04 68.073 335.79 92.143C317.54 116.213 312.79 124.843 292.71 165.883C279.856 191.767 265.336 216.79 249.24 240.793H408.38C408.38 240.793 434.38 241.573 437.1 210.913C439.82 180.253 438 85.923 412.65 63.413Z" fill="#281A42"/>
</svg>
