<?xml version="1.0" encoding="utf-8"?>
<!-- Generator: Adobe Illustrator 22.1.0, SVG Export Plug-In . SVG Version: 6.00 Build 0)  -->
<svg version="1.1" id="Layer_1" xmlns="http://www.w3.org/2000/svg" xmlns:xlink="http://www.w3.org/1999/xlink" x="0px" y="0px"
	 viewBox="0 0 500 500" style="enable-background:new 0 0 500 500;" xml:space="preserve">
<g id="Background_Complete">
</g>
<g id="Background_Simple" style="display:none;">
	<path style="display:inline;fill:#F5F5F5;" d="M38.74,150.22l1.21,1.32c10.16,11.1,25.52,15.97,39.93,12.15
		c1.85-0.49,3.67-1.11,5.44-1.87c12.71-5.47,22.27-17.8,24.51-31.6c1.32-8.12,0.38-16.98,4.53-24.04
		c5.41-9.19,17.16-11.77,27.61-13.51s22.2-4.35,27.57-13.56c3.36-5.77,3.35-13.03,1.7-19.53c-4.38-17.23-19.59-30.39-36.56-35.08
		c-16.96-4.68-35.27-1.77-51.48,4.98C60.49,38.94,40.58,56.49,31.07,79.4C21.56,102.29,23.59,130.53,38.74,150.22z"/>
	<ellipse style="display:inline;fill:#F5F5F5;" cx="385.98" cy="93.57" rx="36.78" ry="36.78"/>
</g>
<g id="Cave">
</g>
<g id="Character">
</g>
<g id="Plant">
</g>
<circle style="fill:#261A43;" cx="372.5" cy="293.5" r="118.5"/>
<circle style="fill:#FCC100;" cx="52" cy="76" r="50"/>
</svg>
