<?xml version="1.0" encoding="utf-8"?>
<!-- Generator: Adobe Illustrator 22.1.0, SVG Export Plug-In . SVG Version: 6.00 Build 0)  -->
<svg version="1.1" id="Capa_1" xmlns="http://www.w3.org/2000/svg" xmlns:xlink="http://www.w3.org/1999/xlink" x="0px" y="0px"
	 viewBox="0 0 455.4 455.4" style="enable-background:new 0 0 455.4 455.4;" xml:space="preserve">
<style type="text/css">
	.st0{fill:#1A2E35;}
</style>
<g>
	<g>
		<path class="st0" d="M236,52.6c0.4,9.7,0.8,19.4,1.2,29.1c-7.5,0-11.3,0-18.9,0c0.4-9.7,0.8-19.4,1.2-29.1c-15.3,0-30.6,0-45.9,0
			c-30.7,116.8-61.5,233.5-92.2,350.3c41.4,0,82.7,0,124.1,0c0.4-9.7,0.8-19.4,1.2-29.1c14.1,0,28.2,0,42.3,0
			c0.4,9.7,0.8,19.4,1.2,29.1c41.4,0,82.7,0,124.1,0c-30.7-116.8-61.5-233.5-92.2-350.3C266.6,52.6,251.3,52.6,236,52.6z
			 M216.5,125.1c7.5,0,14.9,0,22.4,0c1.1,26.9,2.2,53.9,3.2,80.8c-9.6,0-19.2,0-28.8,0C214.4,179,215.4,152.1,216.5,125.1z
			 M208.3,330.3c1.1-26.9,2.2-53.9,3.2-80.8c10.8,0,21.6,0,32.3,0c1.1,26.9,2.2,53.9,3.2,80.8C234.2,330.3,221.2,330.3,208.3,330.3z
			"/>
		<path class="st0" d="M311.9,52.6c-6.2,0-9.4,0-15.6,0c39,116.8,77.9,233.5,116.9,350.3c14.1,0,28.2,0,42.2,0
			C407.6,286.1,359.8,169.3,311.9,52.6z"/>
		<path class="st0" d="M143.5,52.6C95.7,169.3,47.8,286.1,0,402.9c14.1,0,28.2,0,42.2,0c39-116.8,77.9-233.5,116.9-350.3
			C152.9,52.6,149.7,52.6,143.5,52.6z"/>
	</g>
</g>
</svg>
