<?xml version="1.0" encoding="utf-8"?>
<!-- Generator: Adobe Illustrator 22.1.0, SVG Export Plug-In . SVG Version: 6.00 Build 0)  -->
<svg version="1.1" id="Capa_1" xmlns="http://www.w3.org/2000/svg" xmlns:xlink="http://www.w3.org/1999/xlink" x="0px" y="0px"
	 viewBox="0 0 512 512" style="enable-background:new 0 0 512 512;" xml:space="preserve">
<style type="text/css">
	.st0{fill:#1A2E35;}
</style>
<g>
	<g>
		<path class="st0" d="M402,166c-5.5,0-10,4.5-10,10s4.5,10,10,10s10-4.5,10-10S407.5,166,402,166z"/>
	</g>
</g>
<g>
	<g>
		<path class="st0" d="M482,126H372.2l-31.7-63.4C335.4,52.4,325.1,46,313.6,46H198.4c-11.4,0-21.7,6.4-26.8,16.6L139.8,126H120v-10
			c0-16.5-13.5-30-30-30H70c-16.5,0-30,13.5-30,30v10H30c-16.5,0-30,13.5-30,30c0,27.2,0,269.4,0,280c0,16.5,13.5,30,30,30h452
			c16.5,0,30-13.5,30-30c0-27.2,0-269.4,0-280C512,139.5,498.5,126,482,126z M189.4,71.5c1.7-3.4,5.1-5.5,8.9-5.5h115.3
			c3.8,0,7.2,2.1,8.9,5.5l27.2,54.5H162.2L189.4,71.5z M60,116c0-5.5,4.5-10,10-10h20c5.5,0,10,4.5,10,10v10H60V116z M20,225.9
			h126.5C133.2,246.7,126,271,126,296s7.2,49.2,20.4,70H20V225.9z M256,186c60.1,0,110,48.7,110,110c0,61.2-49.8,110-110,110
			c-60.3,0-110-48.8-110-110S195.8,186,256,186z M492,436c0,5.5-4.5,10-10,10H30c-5.5,0-10-4.5-10-10v-50h142.2
			c24.4,25.5,58.3,40,93.8,40c35.4,0,69.3-14.5,93.8-40H492V436z M492,366H365.5c13.3-20.8,20.5-45,20.5-70s-7.2-49.2-20.5-70H492
			V366z M492,206H349.8c-24.4-25.5-58.3-40-93.8-40c-35.4,0-69.3,14.5-93.8,40H20v-50c0-5.5,4.5-10,10-10c9.1,0,437.9,0,452,0
			c5.5,0,10,4.5,10,10V206z"/>
	</g>
</g>
<g>
	<g>
		<path class="st0" d="M286,86h-60c-5.5,0-10,4.5-10,10s4.5,10,10,10h60c5.5,0,10-4.5,10-10S291.5,86,286,86z"/>
	</g>
</g>
<g>
	<g>
		<path class="st0" d="M256,206c-49.6,0-90,40.4-90,90s40.4,90,90,90s90-40.4,90-90S305.6,206,256,206z M256,366
			c-38.6,0-70-31.4-70-70s31.4-70,70-70s70,31.4,70,70S294.6,366,256,366z"/>
	</g>
</g>
<g>
	<g>
		<path class="st0" d="M256,246c-27.6,0-50,22.4-50,50c0,5.5,4.5,10,10,10s10-4.5,10-10c0-16.5,13.5-30,30-30c5.5,0,10-4.5,10-10
			S261.5,246,256,246z"/>
	</g>
</g>
<g>
	<g>
		<path class="st0" d="M462,166h-20c-5.5,0-10,4.5-10,10s4.5,10,10,10h20c5.5,0,10-4.5,10-10S467.5,166,462,166z"/>
	</g>
</g>
</svg>
