<?xml version="1.0" encoding="utf-8"?>
<!-- Generator: Adobe Illustrator 22.1.0, SVG Export Plug-In . SVG Version: 6.00 Build 0)  -->
<svg version="1.1" id="Layer_1" xmlns="http://www.w3.org/2000/svg" xmlns:xlink="http://www.w3.org/1999/xlink" x="0px" y="0px"
	 viewBox="0 0 86.1 15.5" style="enable-background:new 0 0 86.1 15.5;" xml:space="preserve">
<path style="fill:#FFFFFF;" d="M5.8,4.2c0.3,0,0.5,0.1,0.7,0.3c0.2,0.2,0.3,0.4,0.3,0.7l0,0c0,0.3-0.1,0.5-0.3,0.7
	C6.3,6,6.1,6.1,5.8,6.1H5.2C4.6,6.1,4,6.3,3.6,6.8c-0.4,0.4-0.7,1-0.7,1.6v6.1c0,0.3-0.1,0.5-0.3,0.7s-0.4,0.3-0.7,0.3l0,0
	c-0.3,0-0.5-0.1-0.7-0.3C1.1,15,1,14.8,1,14.5V8.4c0-1.2,0.4-2.2,1.2-3s1.8-1.2,3-1.2H5.8L5.8,4.2z"/>
<path style="fill:#FFFFFF;" d="M18.3,7.5c0.1,0.2,0.1,0.5,0,0.7S18,8.6,17.8,8.7c-1,0.4-2.2,1-3.8,1.7c-1.9,0.9-3.2,1.5-3.8,1.7
	c0.7,1,1.7,1.4,2.9,1.4c0.8,0,1.5-0.2,2.2-0.7c0.6-0.5,1.1-1.1,1.3-1.8c0.1-0.4,0.4-0.6,0.9-0.6c0.3,0,0.6,0.1,0.8,0.4
	c0.2,0.3,0.2,0.5,0.1,0.9c-0.4,1.1-1.1,2-2,2.7c-1,0.7-2.1,1.1-3.3,1.1c-1.5,0-2.9-0.6-4-1.6c-1.1-1.1-1.6-2.4-1.6-4s0.6-2.9,1.6-4
	c1.1-1.1,2.4-1.6,4-1.6c1.1,0,2.1,0.3,3.1,0.9C17.1,5.7,17.8,6.5,18.3,7.5z M13.2,6.1c-1,0-1.9,0.4-2.6,1.1C9.8,8,9.5,8.8,9.5,9.9
	c0,0.2,0,0.4,0,0.5L16,7.5C15.3,6.6,14.3,6.1,13.2,6.1z"/>
<path style="fill:#FFFFFF;" d="M23.2,6.1c-0.4,0-0.7,0.1-1,0.4s-0.4,0.6-0.4,1c0,0.5,0.3,0.9,0.8,1.2c0.2,0.1,0.8,0.3,1.8,0.5
	c0.8,0.2,1.3,0.5,1.7,0.8c0.5,0.5,0.8,1.2,0.8,2.1c0,0.9-0.3,1.7-1,2.3c-0.6,0.6-1.4,1-2.3,1h-2.7c-0.3,0-0.5-0.1-0.7-0.3
	s-0.3-0.4-0.3-0.7l0,0c0-0.3,0.1-0.5,0.3-0.7c0.2-0.2,0.4-0.3,0.7-0.3h2.8c0.4,0,0.7-0.1,1-0.4c0.3-0.3,0.4-0.6,0.4-1
	c0-0.5-0.3-0.9-0.8-1.1c-0.1-0.1-0.7-0.2-1.8-0.5c-0.8-0.2-1.3-0.5-1.7-0.9C20.3,9,20,8.3,20,7.4s0.3-1.7,1-2.3c0.6-0.6,1.4-1,2.3-1
	h1.9c0.3,0,0.5,0.1,0.7,0.3c0.2,0.2,0.3,0.4,0.3,0.7l0,0c0,0.3-0.1,0.5-0.3,0.7c-0.2,0.2-0.4,0.3-0.7,0.3L23.2,6.1L23.2,6.1z"/>
<path style="fill:#FFFFFF;" d="M29.5,0c0.3,0,0.5,0.1,0.7,0.3s0.3,0.4,0.3,0.7v3.3h1.8c0.3,0,0.5,0.1,0.7,0.3
	c0.2,0.2,0.3,0.4,0.3,0.7l0,0c0,0.3-0.1,0.5-0.3,0.7s-0.4,0.3-0.7,0.3h-1.8v6.4c0,0.3,0.1,0.5,0.3,0.7c0.2,0.2,0.4,0.3,0.7,0.3h0.8
	c0.3,0,0.5,0.1,0.7,0.3s0.3,0.4,0.3,0.7l0,0c0,0.3-0.1,0.5-0.3,0.7s-0.4,0.3-0.7,0.3h-0.8c-0.8,0-1.5-0.3-2.1-0.9
	c-0.6-0.6-0.9-1.3-0.9-2.1V0.9c0-0.3,0.1-0.5,0.3-0.7S29.2,0,29.5,0L29.5,0L29.5,0z"/>
<path style="fill:#FFFFFF;" d="M36,2.3c-0.3,0-0.6-0.1-0.8-0.3s-0.3-0.5-0.3-0.8s0.1-0.6,0.3-0.8C35.4,0.1,35.6,0,36,0
	c0.3,0,0.6,0.1,0.8,0.3s0.3,0.5,0.3,0.8S37,1.7,36.8,1.9C36.5,2.2,36.3,2.3,36,2.3z M36,4.2c0.3,0,0.5,0.1,0.7,0.3
	C36.9,4.7,37,4.9,37,5.2v9.3c0,0.3-0.1,0.5-0.3,0.7s-0.4,0.3-0.7,0.3l0,0c-0.3,0-0.5-0.1-0.7-0.3S35,14.8,35,14.5V5.2
	c0-0.3,0.1-0.5,0.3-0.7S35.7,4.2,36,4.2L36,4.2L36,4.2z"/>
<path style="fill:#FFFFFF;" d="M41.2,14.5c0,0.3-0.1,0.5-0.3,0.7s-0.4,0.3-0.7,0.3l0,0c-0.3,0-0.5-0.1-0.7-0.3s-0.3-0.4-0.3-0.7V8.9
	c0-1.3,0.4-2.4,1.4-3.3c0.9-0.9,2-1.4,3.3-1.4s2.4,0.4,3.3,1.4c0.9,0.9,1.4,2,1.4,3.3v5.6c0,0.3-0.1,0.5-0.3,0.7s-0.4,0.3-0.7,0.3
	l0,0c-0.3,0-0.5-0.1-0.7-0.3s-0.3-0.4-0.3-0.7V8.9c0-0.8-0.3-1.4-0.8-2c-0.5-0.5-1.2-0.8-2-0.8s-1.4,0.3-2,0.8
	c-0.5,0.5-0.8,1.2-0.8,2L41.2,14.5L41.2,14.5z"/>
<path style="fill:#FFFFFF;" d="M70.3,6.2C70.4,6.1,70.4,6.1,70.3,6.2L65,6.1c-0.3,0-0.5-0.1-0.7-0.3C64.1,5.6,64,5.4,64,5.2l0,0
	c0-0.3,0.1-0.5,0.3-0.7c0.2-0.2,0.4-0.3,0.7-0.3h6.2c0.7,0,1.2,0.3,1.5,1s0.2,1.2-0.3,1.7c-2.3,2.4-4.4,4.6-6.1,6.4c0,0,0,0-0.1,0.1
	s-0.1,0.1,0.1,0.1h0.1h5.7c0.3,0,0.5,0.1,0.7,0.3s0.3,0.4,0.3,0.7l0,0c0,0.3-0.1,0.5-0.3,0.7c-0.2,0.2-0.4,0.3-0.7,0.3h-6.6
	c-0.7,0-1.2-0.3-1.5-1c-0.3-0.7-0.2-1.2,0.3-1.7C65,12.1,66,11,67.4,9.6C68.6,8.1,69.6,7,70.3,6.2C70.3,6.3,70.3,6.3,70.3,6.2z"/>
<path style="fill:#FFFFFF;" d="M84.9,7.5C85,7.7,85,8,84.9,8.2s-0.3,0.4-0.5,0.5c-1,0.4-2.2,1-3.8,1.7c-1.9,0.9-3.2,1.5-3.8,1.7
	c0.7,1,1.7,1.4,2.9,1.4c0.8,0,1.5-0.2,2.2-0.7c0.6-0.5,1.1-1.1,1.3-1.8c0.1-0.4,0.4-0.6,0.9-0.6c0.3,0,0.6,0.1,0.8,0.4
	c0.2,0.3,0.2,0.5,0.1,0.9c-0.4,1.1-1.1,2-2,2.7c-1,0.7-2.1,1.1-3.3,1.1c-1.5,0-2.9-0.6-4-1.6c-1.1-1.1-1.6-2.4-1.6-4s0.6-2.9,1.6-4
	c1.1-1.1,2.4-1.6,4-1.6c1.1,0,2.1,0.3,3.1,0.9C83.8,5.7,84.5,6.5,84.9,7.5z M79.8,6.1c-1,0-1.9,0.4-2.6,1.1s-1.1,1.6-1.1,2.6
	c0,0.2,0,0.4,0,0.5l6.5-2.9C81.9,6.6,80.9,6.1,79.8,6.1z"/>
<path style="fill:#E51C1C;" d="M53.7,12.5c-0.7-0.7-1.1-1.6-1.1-2.6S53,8,53.7,7.3s1.6-1.1,2.6-1.1s1.9,0.4,2.6,1.1
	C59.7,7.9,60,8.8,60,9.8s-0.4,1.9-1.1,2.6c-0.7,0.7-1.6,1.1-2.6,1.1C55.3,13.5,54.4,13.2,53.7,12.5z M62.4,15.4
	c0.1-0.1,0.1-0.2,0.1-0.4c-0.2-2-0.4-4-0.7-6c0-0.3-0.1-0.8-0.4-1.4c-0.1-0.2-0.4-1-1.2-1.8c-1.1-1.1-2.4-1.6-4-1.6s-2.9,0.6-4,1.6
	c-1.1,1.1-1.6,2.4-1.6,4s0.6,2.9,1.6,4c0.8,0.8,1.6,1.1,1.8,1.2c0.6,0.3,1.1,0.3,1.6,0.4C55.7,15.4,62.4,15.4,62.4,15.4z"/>
<path style="fill:#E51C1C;" d="M53.9,9.8L53.9,9.8c0.2,0,0.4-0.1,0.4-0.3C54.5,8.6,55.2,8,56,7.8c0.2,0,0.3-0.2,0.3-0.4l0,0
	c0-0.2-0.2-0.4-0.4-0.4c-1.2,0.2-2.2,1.1-2.4,2.3C53.4,9.5,53.6,9.8,53.9,9.8z"/>
<line style="fill:none;" x1="62.4" y1="15.4" x2="55.7" y2="15.4"/>
</svg>
