<?xml version="1.0" encoding="utf-8"?>
<!-- Generator: Adobe Illustrator 22.1.0, SVG Export Plug-In . SVG Version: 6.00 Build 0)  -->
<svg version="1.1" id="Layer_1" xmlns="http://www.w3.org/2000/svg" xmlns:xlink="http://www.w3.org/1999/xlink" x="0px" y="0px"
	 viewBox="0 0 500 500" style="enable-background:new 0 0 500 500;" xml:space="preserve">
<g id="Background_Complete">
</g>
<g id="Background_Simple" style="display:none;">
	<path style="display:inline;fill:#F5F5F5;" d="M38.74,150.22l1.21,1.32c10.16,11.1,25.52,15.97,39.93,12.15
		c1.85-0.49,3.67-1.11,5.44-1.87c12.71-5.47,22.27-17.8,24.51-31.6c1.32-8.12,0.38-16.98,4.53-24.04
		c5.41-9.19,17.16-11.77,27.61-13.51s22.2-4.35,27.57-13.56c3.36-5.77,3.35-13.03,1.7-19.53c-4.38-17.23-19.59-30.39-36.56-35.08
		c-16.96-4.68-35.27-1.77-51.48,4.98C60.49,38.94,40.58,56.49,31.07,79.4C21.56,102.29,23.59,130.53,38.74,150.22z"/>
	<ellipse style="display:inline;fill:#F5F5F5;" cx="385.98" cy="93.57" rx="36.78" ry="36.78"/>
</g>
<g id="Cave">
</g>
<g id="Character">
</g>
<g id="Plant">
</g>
<g id="Floor_1_">
	<g>
		<g>
			<g>
				<path style="fill:#EBEBEB;" d="M5.43,307.66c1.13,5.99,14.03,104.81,14.03,104.81l47.22,24.07l-4.17-64.44L5.43,307.66z"/>
			</g>
		</g>
		<g>
			<g>
				<g>
					<g>
						<g>
							<g>
								<path style="fill:#E0E0E0;" d="M436.71,365.92c4.35,31,8.71,62,13.06,92.99l3.4,0.11
									C451,427.44,448.69,395.23,436.71,365.92z"/>
							</g>
						</g>
					</g>
				</g>
			</g>
			<g>
				<g>
					<g>
						<g>
							<g>
								<path style="fill:#E0E0E0;" d="M472.98,361.57c-9.12,9.99-12.79,23.74-15.1,37.07c-3.28,18.91-3.57,41.23-2.59,60.39
									l4.77,0.11C458.12,426.03,462.6,393.05,472.98,361.57z"/>
							</g>
						</g>
					</g>
				</g>
			</g>
			<g>
				<g>
					<g>
						<g>
							<g>
								<path style="fill:#E0E0E0;" d="M439.11,420.94c-1.05-4.61-2.25-9.29-4.88-13.22c-3.55-5.3-9.34-8.65-15.16-11.26
									c-5.82-2.61-11.95-4.7-17.21-8.31c5.87,9.63,19.2,12.19,25.98,21.19c3.38,4.48,4.78,10.1,6.1,15.55
									c2.89,11.89,4.66,22.17,7.55,34.06h3.86C444.08,446.03,441.99,433.59,439.11,420.94z"/>
							</g>
						</g>
					</g>
				</g>
			</g>
			<g>
				<g>
					<g>
						<g>
							<g>
								<path style="fill:#E0E0E0;" d="M463.53,459.03c0,0,3.27-36.93,5.7-43.71c2.42-6.78,25.35-25.52,25.13-24.64
									c-0.22,0.88-17.19,21.38-19.62,25.57c-2.42,4.19-6.61,42.78-6.61,42.78H463.53z"/>
							</g>
						</g>
					</g>
				</g>
			</g>
		</g>
		<g>
			<g>
				<g>
					<g>
						<path style="fill:#E0E0E0;" d="M489.78,499.25l-5.92-34.91l-60.7-33.88l-40.72,16.01l-7.16,11.6
							c-4.34,7.02-10.29,12.9-17.31,17.23c-8.71,5.36-22.27,15.38-26.53,23.96h158.34V499.25z"/>
					</g>
				</g>
			</g>
		</g>
		<g>
			<g>
				<path style="fill:#FAFAFA;" d="M428.13,70.3c2.16,1.75,17.67,22.44,17.67,22.44l32.41-4.63V53.92l-39.13-27.24L428.13,70.3z"/>
			</g>
		</g>
		<g>
			<g>
				<polygon style="fill:#FAFAFA;" points="97.7,50.17 111.37,84.93 157.56,100.66 186.31,63.89 155.68,18.76 110.43,22.48 				"/>
			</g>
		</g>
		<g>
			<g>
				<polygon style="fill:#EBEBEB;" points="340.96,96.9 354.63,131.67 400.82,147.4 429.57,110.63 398.94,65.49 353.69,69.22 				
					"/>
			</g>
		</g>
		<g>
			<g>
				<polygon style="fill:#F5F5F5;" points="276.13,66.49 295.41,62.65 307.85,40.19 291.49,21.87 265.25,33.54 262.97,57.32 				"/>
			</g>
		</g>
		<g>
			<g>
				<polygon style="fill:#EBEBEB;" points="122.76,169.65 137.81,155.98 135.06,112.74 87.22,86.07 46.45,129.5 54.89,149.22 
					33.52,161.8 30.95,188.91 66.08,193.89 72.65,168.76 100.52,172.3 				"/>
			</g>
		</g>
		<g>
			<g>
				<path style="fill:#F5F5F5;" d="M446.31,141.8c-3.55,1.93-21.34,22.59-21.34,22.59l39.93,91.29l-3.21-67.25L446.31,141.8z"/>
			</g>
		</g>
		<g>
			<g>
				<polygon style="fill:#FAFAFA;" points="56.16,92.74 87.53,66.49 78.75,33.92 37.48,39.91 37.48,79.86 				"/>
			</g>
		</g>
		<g>
			<g>
				<polyline style="fill:#FAFAFA;" points="433.71,322.16 453.17,302.35 489.78,307.27 494.36,329.55 457.45,346.49 431.86,322.16 
									"/>
			</g>
		</g>
		<g>
			<g>
				<g>
					<g>
						<polygon style="fill:#E0E0E0;" points="74.2,362.51 109.97,362.51 144.24,423.61 151.69,453.41 224.71,460.86 264.94,429.57 
							329.02,419.14 390.12,380.39 421.41,352.08 421.41,323.77 454.2,293.96 475.06,293.96 451.21,279.06 408.52,169.55 
							335.2,141.28 306.67,80.87 247.06,80.87 239.35,48.09 221.73,36.17 203.39,1.26 206.83,40.64 199.38,73.42 197.89,104.71 
							150.2,130.05 151.69,167.3 129.34,186.67 87.61,183.69 74.2,223.58 26.52,249.26 26.52,286.51 57.81,340.16 						"/>
					</g>
				</g>
				<g>
					<g>
						<path style="fill:#EBEBEB;" d="M208.34,176.68l-9.52,37.99l-11.91-24.8l-10.16,129.91l17.78,31.93l17.78-12.34
							c0,0,5.08,37.01,7.26,38.47c2.18,1.45,23.95,13.79,23.95,13.79l15.97-8.71h17.42l31.21-13.06l5.81-31.93l10.16-13.79
							l8.71,7.26l4.35,16.69l10.89-13.79l7.26-21.05l-13.06-41.09c0,0-5.81,12.62-10.16,0s-6.53-39.47-6.53-39.47l-10.89-34.84
							l-13.79,18.87l-5.81,10.16l-9.44-13.79l-2.18-19.6l-3.63-18.87l-13.79-5.81v21.05l-6.53,11.61l-13.06-15.24l-2.9-13.79v-11.61
							l-15.97,21.77L208.34,176.68z"/>
					</g>
				</g>
				<g>
					<g>
						<path style="fill:#EBEBEB;" d="M151.43,452.37l22.1-43.65l-30.26-20.58l-18.16-25.42l-5.45-1.82c0,0-1.82-88.36,1.21-99.25
							s8.47-24.81,15.13-15.74c6.66,9.08,13.18,28.14,17.42,20.88s11.02-51.14,11.02-51.14l9.08-41.76v-41.76
							c0,0,18.13,45.4,22.21,47.15c3.61,1.55,4.42-49.02,4.42-49.02l5.45-19.09l7.68-41.8c0,0,3.1,40.25,6.71,45.41
							s9.29,10.32,11.35,11.35c2.06,1.03,5.68-23.74,5.68-26.32s0-13.93,0-13.93s10.5,58.83,13.76,54.18
							c3.27-4.64,3.27-22.19,3.27-22.19V91.06l8.26-5.68l28.9,4.13l25.8,27.35c0,0,17.03,77.4,20.64,71.73
							c3.61-5.68,9.29-34.57,9.29-34.57l24.77,29.93l4.64,137.77l-13.15,75.75l23.46-14.88l34.75-30.51v-28.31l-20.29-128.99
							l7.4-25.22l-73.32-28.27l-28.53-60.41h-59.61l-7.71-32.78l-17.62-11.92l-18.34-34.9l3.43,39.37l-7.45,32.78l-1.49,31.29
							l-47.69,25.33l1.49,37.25l-22.35,19.37l-41.72-2.98L74.2,223.58l2.48,11.45L74.2,362.51h35.76l34.27,61.1L151.43,452.37z"/>
					</g>
				</g>
				<g>
					<g>
						<g>
							<polygon style="fill:#F5F5F5;" points="264.94,429.57 268.23,410.72 295.62,411 292.37,400.35 292.52,385.81 301.98,389.82 
								313.78,408.93 298.92,361.28 299.13,341.16 310.98,329.55 333.73,345.99 347.14,401.89 347.34,381.9 352.49,370.22 
								358.06,372.51 366.55,395.34 329.02,419.14 							"/>
						</g>
					</g>
					<g>
						<g>
							<g>
								<path style="fill:#263238;" d="M264.94,429.57c1.48-0.25,24.44-4.05,64.05-10.62l-0.07,0.03
									c11.15-7.09,23.75-15.09,37.5-23.83l-0.09,0.28c-2.69-7.22-5.55-14.89-8.5-22.83l0.14,0.15c-1.72-0.71-3.63-1.49-5.57-2.29
									l0.33-0.13c-1.61,3.65-3.36,7.64-5.14,11.69l0.02-0.1c-0.06,6.31-0.13,13.09-0.2,19.99l-0.02,2.18l-0.51-2.12
									c-3.88-16.16-7.98-33.26-12.2-50.86c-0.4-1.69-0.81-3.37-1.21-5.05l0.11,0.16c-7.72-5.58-15.31-11.07-22.75-16.44l0.35-0.03
									c-4.01,3.93-7.96,7.8-11.86,11.61l0.08-0.19c-0.07,6.85-0.14,13.56-0.21,20.12l-0.01-0.08
									c5.3,17.01,10.27,32.99,14.83,47.66l0.55,1.77l-0.97-1.58c-4.16-6.75-8.07-13.1-11.78-19.12l0.1,0.08
									c-3.33-1.41-6.44-2.74-9.46-4.02l0.28-0.18c-0.06,5.13-0.11,9.95-0.17,14.53l-0.01-0.06c1.17,3.86,2.23,7.35,3.23,10.66
									l0.07,0.22h-0.23c-11.12-0.14-20.21-0.25-27.39-0.34l0.11-0.09C266.17,422.8,265.08,428.8,264.94,429.57
									c0,0,0.06-0.4,0.19-1.21c0.14-0.82,0.34-2.03,0.6-3.61c0.54-3.21,1.35-7.93,2.38-14.05l0.02-0.09h0.09
									c7.17,0.06,16.26,0.13,27.39,0.22l-0.16,0.22c-1.01-3.31-2.08-6.79-3.26-10.65l-0.01-0.03v-0.03
									c0.04-4.58,0.08-9.4,0.13-14.53v-0.3l0.28,0.12c3.02,1.28,6.14,2.59,9.47,4l0.06,0.03l0.04,0.06
									c3.72,6.01,7.64,12.36,11.81,19.1l-0.42,0.19c-4.58-14.66-9.57-30.63-14.89-47.64l-0.01-0.04v-0.04
									c0.06-6.56,0.13-13.27,0.2-20.12v-0.11l0.08-0.08c3.89-3.82,7.85-7.69,11.85-11.62l0.16-0.16l0.19,0.13
									c7.44,5.37,15.03,10.86,22.75,16.44l0.08,0.06l0.02,0.1c0.4,1.68,0.81,3.36,1.21,5.05c4.22,17.59,8.31,34.7,12.19,50.86
									l-0.53,0.06c0.07-6.9,0.14-13.68,0.21-19.99v-0.05l0.02-0.05c1.79-4.05,3.55-8.04,5.16-11.68l0.1-0.23l0.23,0.09
									c1.93,0.8,3.85,1.59,5.56,2.3l0.1,0.04l0.04,0.1c2.95,7.94,5.79,15.61,8.47,22.84l0.07,0.18l-0.16,0.1
									c-13.77,8.71-26.38,16.69-37.55,23.76l-0.03,0.02l-0.04,0.01c-19.91,3.19-35.96,5.77-47.04,7.54
									c-5.51,0.88-9.78,1.56-12.69,2.02c-1.43,0.23-2.53,0.4-3.28,0.52C265.31,429.52,264.94,429.57,264.94,429.57z"/>
							</g>
						</g>
					</g>
				</g>
				<g>
					<g>
						<polyline style="fill:#FAFAFA;" points="134.53,406.3 139.95,392.17 144.62,390.3 148.82,400.1 148.82,420.17 160.48,370.24 
							179.62,356.7 189.42,366.5 189.42,383.3 175.42,424.84 186.62,407.1 194.55,403.84 194.55,415.97 191.75,424.84 
							214.62,424.84 218.82,450.04 236.05,452.04 224.71,460.86 151.69,453.41 144.24,423.61 134.53,406.3 						"/>
					</g>
				</g>
				<g>
					<g>
						<g>
							<path style="fill:#263238;" d="M74.2,362.51c-0.31-0.41-5.63-7.64-16.45-22.31l0,0l0,0c-7.43-12.71-18.02-30.83-31.34-53.62
								l-0.02-0.03v-0.04c-0.01-11.14-0.01-23.71-0.02-37.25v-0.09l0.08-0.04c14.27-7.69,30.35-16.37,47.67-25.7l-0.09,0.1
								c4.18-12.46,8.69-25.88,13.4-39.89l0.05-0.14l0.15,0.01c12.97,0.92,27.1,1.93,41.73,2.97l-0.15,0.05
								c6.87-5.95,14.52-12.59,22.35-19.38l-0.08,0.17c-0.46-11.52-0.98-24.23-1.5-37.25l-0.01-0.14l0.13-0.07
								c14.89-7.91,31.06-16.51,47.68-25.34l-0.13,0.2c0.46-9.66,0.97-20.4,1.48-31.29v-0.02v-0.02
								c2.31-10.15,4.86-21.39,7.45-32.78l-0.01,0.08c-1.07-12.25-2.25-25.71-3.44-39.37L203.02,0l0.6,1.14
								c5.72,10.89,11.99,22.82,18.34,34.9l-0.09-0.1c5.47,3.7,11.53,7.8,17.62,11.92l0.09,0.06l0.02,0.1
								c2.41,10.25,5.05,21.47,7.72,32.78l-0.26-0.21c18.84,0,39.09,0,59.61,0h0.17l0.07,0.16c9.07,19.21,18.75,39.69,28.54,60.41
								l-0.15-0.14c6.89,2.66,14.34,5.53,21.81,8.41c17.34,6.68,34.53,13.31,51.51,19.86l0.11,0.04l0.04,0.11
								c14.62,37.5,28.88,74.1,42.69,109.51l-0.11-0.13c8.03,5.02,15.97,9.98,23.84,14.9l0.78,0.49h-0.93c-7.03,0-13.97,0-20.86,0
								l0.18-0.07c-11.14,10.13-22.06,20.05-32.79,29.8l0.08-0.19c0,9.59,0,19.01,0,28.31v0.11l-0.08,0.08
								c-10.66,9.64-21.08,19.07-31.3,28.31l-0.02,0.01l-0.02,0.01c-21.31,13.51-41.64,26.39-61.11,38.73l-0.04,0.03l-0.05,0.01
								c-22.57,3.67-43.85,7.13-64.08,10.41l0.1-0.04c-14.08,10.94-27.51,21.38-40.25,31.28l-0.06,0.05l-0.08-0.01
								c-27.29-2.8-51.44-5.27-73.01-7.48l-0.11-0.01l-0.03-0.11c-2.81-11.29-5.2-20.84-7.43-29.81l0.01,0.03
								c-14.93-26.66-26.16-46.73-34.22-61.13l0.07,0.04C85.61,362.54,74.77,362.51,74.2,362.51c0.56,0,11.41-0.03,35.76-0.08h0.05
								l0.02,0.04c8.08,14.38,19.35,34.43,34.33,61.07l0.01,0.02v0.02c2.25,8.96,4.64,18.52,7.47,29.8l-0.14-0.12
								c21.57,2.19,45.73,4.64,73.02,7.42l-0.14,0.04c12.73-9.91,26.15-20.36,40.22-31.31l0.04-0.03l0.05-0.01
								c20.23-3.3,41.51-6.77,64.07-10.45l-0.09,0.03c19.46-12.35,39.78-25.24,61.09-38.76l-0.03,0.03
								c10.21-9.24,20.63-18.67,31.29-28.32l-0.08,0.19c0-9.31,0-18.72,0-28.31v-0.11l0.08-0.08c10.73-9.76,21.64-19.68,32.78-29.81
								l0.08-0.07h0.1c6.89,0,13.84,0,20.86,0l-0.14,0.49c-7.87-4.92-15.81-9.88-23.84-14.9l-0.08-0.05l-0.03-0.08
								c-13.81-35.41-28.08-72.01-42.7-109.51l0.16,0.16c-16.99-6.55-34.17-13.18-51.51-19.86c-7.47-2.88-14.91-5.75-21.81-8.41
								l-0.1-0.04l-0.05-0.1c-9.79-20.72-19.46-41.2-28.53-60.41l0.25,0.16c-20.51,0-40.76,0-59.61,0h-0.21l-0.05-0.21
								c-2.66-11.32-5.3-22.53-7.71-32.78l0.11,0.16c-6.09-4.12-12.15-8.22-17.62-11.92l-0.06-0.04l-0.03-0.06
								c-6.35-12.08-12.61-24.02-18.33-34.9l0.49-0.14c1.19,13.66,2.36,27.12,3.43,39.37v0.04l-0.01,0.04
								c-2.59,11.39-5.15,22.63-7.46,32.78l0.01-0.04c-0.52,10.89-1.03,21.63-1.5,31.29l-0.01,0.14l-0.12,0.06
								c-16.63,8.83-32.8,17.41-47.69,25.32l0.12-0.21c0.52,13.02,1.02,25.74,1.48,37.25v0.11l-0.08,0.07
								c-7.83,6.78-15.49,13.41-22.36,19.37l-0.07,0.06l-0.09-0.01c-14.63-1.05-28.75-2.06-41.72-2.99l0.2-0.13
								c-4.72,14.01-9.23,27.42-13.43,39.88l-0.02,0.07l-0.06,0.03c-17.33,9.32-33.42,17.98-47.7,25.66l0.08-0.14
								c-0.01,13.55-0.02,26.11-0.02,37.25l-0.02-0.07c13.28,22.82,23.84,40.95,31.24,53.67v-0.01
								C68.61,354.84,73.9,362.1,74.2,362.51z"/>
						</g>
					</g>
				</g>
				<g>
					<g>
						<path style="fill:#EBEBEB;" d="M26.66,249.81c2.2,19.82,10.09,40.08,18.68,58.07c-1.8,0,10.82-57.99,10.82-57.99l12.19,32.79
							c0,0,13.62-49.01,17.31-65.44L26.66,249.81z"/>
					</g>
				</g>
				<g>
					<g>
						<g>
							<path style="fill:#FF725E;" d="M204.49,3.6c0,0,0.04,0.22,0.08,0.65c0.05,0.46,0.11,1.1,0.19,1.93
								c0.16,1.72,0.38,4.21,0.67,7.4c0.56,6.45,1.37,15.75,2.37,27.21v0.03l-0.01,0.03c-2.13,9.3-4.65,20.28-7.42,32.35l0.01-0.05
								c-0.47,9.9-0.98,20.74-1.51,32.07l-0.01,0.16l-0.14,0.07c-2.68,1.41-5.53,2.92-8.41,4.44
								c-13.97,7.37-27.26,14.39-39.28,20.73l0.13-0.23c0.54,14.13,1.01,26.71,1.4,37.02v0.09l-0.07,0.06
								c-7.2,6.26-12.98,11.29-16.98,14.77c-1.99,1.71-3.53,3.05-4.6,3.96c-0.52,0.44-0.91,0.77-1.2,1.02
								c-0.27,0.23-0.42,0.33-0.42,0.33s0.12-0.13,0.38-0.37c0.28-0.25,0.67-0.6,1.17-1.06c1.05-0.94,2.57-2.29,4.53-4.04
								c3.98-3.51,9.72-8.59,16.87-14.9l-0.06,0.15c-0.43-10.31-0.95-22.89-1.53-37.02l-0.01-0.16l0.14-0.07
								c12.01-6.36,25.3-13.38,39.26-20.77c2.88-1.52,5.73-3.03,8.41-4.44l-0.15,0.23c0.55-11.33,1.07-22.17,1.55-32.07V73.1
								l0.01-0.02c2.8-12.06,5.36-23.04,7.52-32.33v0.06c-0.92-11.47-1.67-20.77-2.19-27.22c-0.24-3.2-0.43-5.7-0.57-7.41
								c-0.06-0.83-0.1-1.47-0.13-1.93C204.49,3.82,204.49,3.6,204.49,3.6z"/>
						</g>
					</g>
				</g>
				<g>
					<g>
						<g>
							<path style="fill:#FF725E;" d="M400.18,166.34c0,0.01-0.11-0.02-0.33-0.09c-0.23-0.08-0.54-0.18-0.95-0.32
								c-0.85-0.3-2.08-0.72-3.66-1.28c-3.21-1.14-7.86-2.79-13.72-4.87c-11.75-4.21-28.31-10.14-47.67-17.08l-0.1-0.04l-0.05-0.1
								c-4.8-10.36-10.05-21.71-15.53-33.56c-4.37-9.45-8.59-18.59-12.55-27.18l0.24,0.15c-24.53-0.05-45.38-0.09-59.27-0.11h-0.12
								l-0.03-0.12c-1.37-5.56-2.45-9.97-3.2-13.01c-0.36-1.49-0.64-2.65-0.83-3.46c-0.09-0.38-0.15-0.67-0.2-0.89
								c-0.04-0.2-0.06-0.3-0.06-0.31c0.01,0,0.04,0.1,0.1,0.3c0.06,0.22,0.14,0.51,0.24,0.88c0.21,0.8,0.51,1.95,0.91,3.44
								c0.78,3.03,1.91,7.43,3.34,12.98l-0.15-0.12c13.89-0.03,34.75-0.07,59.27-0.11h0.17l0.07,0.15
								c3.97,8.59,8.2,17.72,12.57,27.17c5.47,11.85,10.72,23.21,15.5,33.57l-0.15-0.13c19.33,7.01,35.87,13.01,47.6,17.27
								c5.83,2.14,10.47,3.83,13.67,5.01c1.57,0.58,2.78,1.04,3.63,1.35c0.4,0.15,0.7,0.27,0.93,0.36
								C400.08,166.28,400.18,166.33,400.18,166.34z"/>
						</g>
					</g>
				</g>
			</g>
		</g>
		<g>
			<g>
				<g>
					<path style="fill:#263238;" d="M492.29,297.97c-0.03,0.15-4.09-0.56-9.06-1.59c-4.98-1.03-8.98-1.98-8.95-2.13
						s4.09,0.56,9.06,1.59C488.32,296.86,492.33,297.82,492.29,297.97z"/>
				</g>
			</g>
		</g>
		<g>
			<g>
				<g>
					<path style="fill:#263238;" d="M177.28,94.95c-0.15,0.02-0.8-3.78-1.46-8.49c-0.65-4.71-1.06-8.55-0.91-8.57
						s0.8,3.78,1.46,8.49C177.02,91.1,177.43,94.93,177.28,94.95z"/>
				</g>
			</g>
		</g>
		<g>
			<g>
				<g>
					<path style="fill:#263238;" d="M199.93,105.06c-0.01,0.04-0.36-0.06-0.96-0.25c-0.61-0.2-1.48-0.5-2.55-0.91
						c-2.14-0.8-5.06-2-8.22-3.45c-3.16-1.46-5.97-2.91-7.96-4.01c-1-0.55-1.8-1.01-2.34-1.35c-0.54-0.33-0.84-0.53-0.82-0.57
						c0.04-0.07,1.3,0.56,3.34,1.57s4.86,2.4,8.01,3.86c3.15,1.45,6.04,2.7,8.13,3.59C198.66,104.43,199.96,104.99,199.93,105.06z"
						/>
				</g>
			</g>
		</g>
		<g>
			<g>
				<g>
					<path style="fill:#263238;" d="M158.48,92.73c0.01-0.15,4.27,0.11,9.5,0.59c5.23,0.48,9.46,0.99,9.45,1.14
						c-0.01,0.15-4.27-0.11-9.5-0.59C162.7,93.39,158.47,92.88,158.48,92.73z"/>
				</g>
			</g>
		</g>
		<g>
			<g>
				<g>
					<path style="fill:#263238;" d="M250.33,33.25c0.12,0.09-2.17,3.41-5.11,7.41c-2.95,4-5.43,7.17-5.56,7.08
						c-0.12-0.09,2.17-3.41,5.11-7.41C247.72,36.33,250.2,33.16,250.33,33.25z"/>
				</g>
			</g>
		</g>
		<g>
			<g>
				<g>
					<path style="fill:#263238;" d="M308.07,68.17c0.15,0.02-0.08,2.98-0.52,6.62s-0.92,6.57-1.07,6.56
						c-0.15-0.02,0.08-2.98,0.52-6.62C307.44,71.08,307.92,68.15,308.07,68.17z"/>
				</g>
			</g>
		</g>
		<g>
			<g>
				<g>
					<path style="fill:#263238;" d="M318.98,64.27c0.06,0.14-2.23,1.29-5.12,2.57c-2.89,1.28-5.29,2.21-5.35,2.07
						s2.23-1.29,5.13-2.57C316.52,65.06,318.92,64.14,318.98,64.27z"/>
				</g>
			</g>
		</g>
		<g>
			<g>
				<g>
					<path style="fill:#263238;" d="M324.02,43.74c0.15,0.04-0.88,4.58-2.29,10.14s-2.68,10.04-2.82,10
						c-0.15-0.04,0.88-4.58,2.29-10.14C322.61,48.19,323.88,43.71,324.02,43.74z"/>
				</g>
			</g>
		</g>
		<g>
			<g>
				<g>
					<path style="fill:#263238;" d="M334.51,55.97c-0.01,0.15-2.61,0.18-5.83,0.06c-3.21-0.12-5.81-0.34-5.81-0.5
						c0.01-0.15,2.61-0.18,5.83-0.06C331.91,55.59,334.51,55.82,334.51,55.97z"/>
				</g>
			</g>
		</g>
		<g>
			<g>
				<g>
					<path style="fill:#263238;" d="M431.66,154.96c0.02,0.03-0.3,0.26-0.9,0.65c-0.7,0.45-1.55,0.98-2.54,1.61
						c-2.15,1.36-5.1,3.25-8.31,5.43c-3.2,2.18-6.05,4.24-8.1,5.74c-0.95,0.69-1.76,1.28-2.43,1.77c-0.58,0.41-0.91,0.63-0.93,0.6
						s0.26-0.3,0.8-0.77c0.54-0.47,1.33-1.12,2.33-1.92c1.99-1.58,4.81-3.7,8.02-5.88c3.21-2.19,6.21-4.03,8.41-5.31
						c1.1-0.64,2-1.14,2.64-1.46C431.28,155.09,431.64,154.93,431.66,154.96z"/>
				</g>
			</g>
		</g>
		<g>
			<g>
				<g>
					<path style="fill:#263238;" d="M481.22,313.35c-0.15,0.05-1.56-4.09-3.15-9.24c-1.6-5.15-2.77-9.36-2.62-9.41
						c0.15-0.05,1.56,4.09,3.15,9.25C480.19,309.1,481.36,313.31,481.22,313.35z"/>
				</g>
			</g>
		</g>
		<g>
			<g>
				<g>
					<path style="fill:#263238;" d="M6.22,264.92c-0.09-0.12,4.22-3.67,9.64-7.92c5.42-4.26,9.89-7.61,9.98-7.49
						s-4.22,3.67-9.64,7.92C10.78,261.69,6.31,265.04,6.22,264.92z"/>
				</g>
			</g>
		</g>
		<g>
			<g>
				<g>
					<path style="fill:#263238;" d="M6.89,251.5c0.1-0.12,1.84,1.22,3.9,2.98c2.05,1.76,3.64,3.28,3.54,3.4s-1.84-1.22-3.9-2.98
						C8.38,253.14,6.8,251.61,6.89,251.5z"/>
				</g>
			</g>
		</g>
		<g>
			<g>
				<g>
					<path style="fill:#263238;" d="M59.57,208.05c0.11-0.1,3.22,3.14,6.94,7.23c3.72,4.1,6.65,7.5,6.54,7.6s-3.22-3.14-6.94-7.23
						C62.38,211.55,59.46,208.15,59.57,208.05z"/>
				</g>
			</g>
		</g>
		<g>
			<g>
				<g>
					<path style="fill:#FFBE9D;" d="M260.18,220.39l27.89-9.7l-8.31-31.53l8.57-2.98c0,0,17.76,29.11,18.88,39.26
						c1.12,10.14-31.39,22.69-31.39,22.69L260.18,220.39z"/>
				</g>
			</g>
			<g>
				<g>
					<g>
						<path style="fill:#EB996E;" d="M296.5,207.84c0.03,0.07-0.91,0.55-2.49,1.13c-1.58,0.59-3.79,1.34-6.23,2.13
							c-2.34,0.77-4.46,1.47-6.24,2.06c-1.59,0.53-2.55,0.93-2.59,0.86c-0.03-0.06,0.88-0.6,2.45-1.23
							c1.56-0.64,3.76-1.42,6.21-2.22c2.44-0.8,4.67-1.48,6.27-1.98C295.49,208.12,296.46,207.77,296.5,207.84z"/>
					</g>
				</g>
			</g>
			<g>
				<g>
					<g>
						<g>
							<g>
								<path style="fill:#FFBE9D;" d="M284.35,162.06c-0.53-0.66-0.47-0.86-1.01-1s-1.83-0.68-2.25-0.47
									c-0.42,0.22-0.72,1.03-0.72,1.03s-1.45-1.3-2.47-1.13s-1.41,0.61-1.43,0.96c0,0-0.68-0.7-1.7-0.53s-1.74,0.65-1.74,1.37
									c0,0-0.88-0.13-1.3,0.01c-0.17,0.06-0.44,0.18-0.69,0.37c-0.53,0.4-0.71,1.12-0.46,1.74l0.55,1.33c0,0-1.19,0.45-1.25,0.95
									s0.04,0.98,0.2,1.35c0.16,0.38,1.18,2.75,1.29,3.56c0.11,0.81,1.01,1.72,1.01,1.72l5.22,2.75c0,0,0.39,0.26,0.88,0.71
									c0.58,0.53,0.81,1.85,1.08,2.58c0.89,2.46,3.56,8.52,3.56,8.52l8.96-3.86l-3.37-7.84l-1.09-2.54
									c0.06-0.57,0.24-1.77-0.08-2.93s-0.89-2.68-1.15-3.29C286.12,166.81,284.87,162.72,284.35,162.06z"/>
							</g>
						</g>
					</g>
				</g>
				<g>
					<g>
						<g>
							<path style="fill:#EB996E;" d="M273.92,164.2c-0.07,0.03-0.47-0.67-1.08-1.84l-0.02-0.11c0.02,0.18,0.06,0.12,0.05,0.14
								l-0.04-0.01c-0.04-0.01-0.09-0.01-0.15-0.01c-0.11,0-0.23,0.02-0.36,0.03c-0.25,0.04-0.55,0.09-0.78,0.17
								c-0.49,0.15-0.84,0.67-0.84,1.24l-0.02-0.1c0.2,0.46,0.4,0.94,0.59,1.44c0.71,1.87,1.27,3.57,1.68,4.81
								c0.41,1.24,0.66,2,0.59,2.03s-0.46-0.68-0.96-1.89c-0.51-1.2-1.13-2.89-1.83-4.75c-0.19-0.49-0.38-0.98-0.57-1.42l-0.02-0.05
								v-0.05c-0.01-0.81,0.55-1.53,1.22-1.71c0.33-0.1,0.6-0.12,0.88-0.15c0.14-0.01,0.28-0.02,0.42-0.01
								c0.07,0,0.14,0.01,0.22,0.03c0.04,0.01,0.08,0.02,0.13,0.05c0.04,0.05,0.14,0.02,0.16,0.26l-0.02-0.11
								C273.71,163.41,273.99,164.17,273.92,164.2z"/>
						</g>
					</g>
				</g>
				<g>
					<g>
						<g>
							<path style="fill:#EB996E;" d="M277.51,163.42c-0.15,0.04-0.38-0.34-0.64-0.8s-0.46-0.86-0.34-0.97
								c0.11-0.1,0.53,0.17,0.83,0.7C277.64,162.88,277.65,163.38,277.51,163.42z"/>
						</g>
					</g>
				</g>
				<g>
					<g>
						<g>
							<path style="fill:#EB996E;" d="M281.17,163.32c-0.16-0.01-0.26-0.34-0.42-0.71c-0.14-0.37-0.3-0.69-0.19-0.8
								c0.1-0.11,0.5,0.1,0.7,0.59C281.47,162.9,281.32,163.33,281.17,163.32z"/>
						</g>
					</g>
				</g>
			</g>
			<g>
				<g>
					<g>
						<path style="fill:#FF725E;" d="M287.93,210.2c-0.15,0.04-2.13-6.96-4.42-15.64s-4.03-15.74-3.89-15.78
							c0.15-0.04,2.13,6.96,4.42,15.64C286.34,203.09,288.08,210.16,287.93,210.2z"/>
					</g>
				</g>
			</g>
		</g>
		<g>
			<g>
				<g>
					<path style="fill:#455A64;" d="M263.51,159.13l-5.75-3.01l-0.54,4.05l6.07,3.02c0.35,0.39,40.66,20.1,40.66,20.1l1.28-2.73
						L263.51,159.13z"/>
				</g>
			</g>
			<g>
				<g>
					<path style="fill:#FF725E;" d="M268.95,126.19c0.37-6.78-3.96-12.81-8.09-18.19c-1.48-1.93-3.37-4.05-5.79-3.87
						c-1.65,0.13-3.03,1.37-3.83,2.81c-0.8,1.44-1.13,3.09-1.54,4.69c-1.38,5.38-3.73,10.44-5.75,15.61
						c-2.02,5.17-3.73,10.57-3.73,16.12s1.93,11.32,6.16,14.9c3.88,3.29,9.87,4.22,14.21,1.72c3.3-0.55,5.29-4.37,5.44-7.8
						c0.15-3.59-0.99-7.14-0.78-10.73C265.54,136.21,268.66,131.44,268.95,126.19z"/>
				</g>
			</g>
			<g style="opacity:0.8;">
				<g>
					<g>
						<path style="fill:#FFFFFF;" d="M268.95,126.19c0.37-6.78-3.96-12.81-8.09-18.19c-1.48-1.93-3.37-4.05-5.79-3.87
							c-1.65,0.13-3.03,1.37-3.83,2.81c-0.8,1.44-1.13,3.09-1.54,4.69c-1.38,5.38-3.73,10.44-5.75,15.61
							c-2.02,5.17-3.73,10.57-3.73,16.12s1.93,11.32,6.16,14.9c3.88,3.29,9.87,4.22,14.21,1.72c3.3-0.55,5.29-4.37,5.44-7.8
							c0.15-3.59-0.99-7.14-0.78-10.73C265.54,136.21,268.66,131.44,268.95,126.19z"/>
					</g>
				</g>
			</g>
			<g>
				<g>
					<path style="fill:#FF725E;" d="M263.07,150.62c-0.17-4.25-1.05-8.47-0.77-12.71c0.17-2.48,0.73-4.95,0.52-7.42
						c-0.21-2.48-1.43-5.08-3.73-6.01c-1.25-0.51-2.72-0.44-3.92,0.17s-2.12,1.77-2.44,3.08c-0.34,1.38-0.06,2.9-0.61,4.21
						c-0.87,2.09-3.53,2.97-4.47,5.04c-0.66,1.46-0.31,3.17,0.23,4.68s1.26,3,1.31,4.6c0.08,2.58-1.59,4.94-1.69,7.52
						c-0.11,2.8,1.75,5.45,4.21,6.78c2.46,1.34,5.42,1.51,8.19,1.05C264.81,158.25,263.24,154.86,263.07,150.62z"/>
				</g>
			</g>
			<g style="opacity:0.3;">
				<g>
					<g>
						<path style="fill:#FFFFFF;" d="M261.29,151.1c-0.57-2.42-1.96-4.59-2.51-7.01c-0.28-1.21-0.35-2.48-0.8-3.64
							c-0.46-1.16-1.44-2.23-2.68-2.29c-1.41-0.06-2.58,1.23-2.88,2.61c-0.31,1.38,0.04,2.8,0.36,4.17c0.33,1.37,0.65,2.81,0.3,4.17
							c-0.34,1.33-1.28,2.44-1.57,3.78c-0.44,2.03,0.76,4.13,2.43,5.35c0.88,0.64,1.76,0.91,2.67,0.96
							c1.79,0.11,3.57-0.83,4.38-2.43C261.79,155.16,261.79,153.25,261.29,151.1z"/>
					</g>
				</g>
			</g>
			<g style="opacity:0.3;">
				<g>
					<g>
						<path style="fill:#FFFFFF;" d="M256.23,129.98c-0.7,0.39-1.02,1.36-0.68,2.09c0.34,0.73,1.29,1.11,2.04,0.82
							s1.19-1.21,0.95-1.98c-0.24-0.77-1.13-1.27-1.91-1.08"/>
					</g>
				</g>
			</g>
			<g>
				<g>
					<path style="fill:#FF725E;" d="M258.58,111.66c0,0-2.32,2.6-2.23,4.61c0.1,2.14,1.9,2.35,1.9,2.35l0.56-3.48L258.58,111.66z"/>
				</g>
			</g>
			<g>
				<g>
					<g>
						<path style="fill:#FF725E;" d="M269.46,166.13c-0.07,0.14-2.2-0.78-4.76-2.05s-4.58-2.41-4.51-2.54
							c0.07-0.14,2.2,0.78,4.76,2.05C267.5,164.86,269.52,166,269.46,166.13z"/>
					</g>
				</g>
			</g>
			<g>
				<g>
					<g>
						<path style="fill:#FF725E;" d="M234.75,153.24c-0.04,0.01-0.17-0.56-0.39-1.59c-0.23-1.03-0.47-2.54-0.68-4.42
							c-0.22-1.88-0.35-4.13-0.36-6.62c0.02-2.5,0.17-5.25,0.55-8.11c0.4-2.86,0.98-5.55,1.63-7.97c0.68-2.41,1.4-4.54,2.11-6.29
							s1.34-3.14,1.83-4.08c0.48-0.94,0.77-1.45,0.8-1.43s-0.18,0.56-0.61,1.52c-0.43,0.96-1.01,2.37-1.66,4.12
							c-0.66,1.76-1.34,3.89-1.99,6.28c-0.61,2.4-1.18,5.07-1.57,7.91c-0.37,2.84-0.54,5.56-0.59,8.04
							c-0.02,2.48,0.07,4.71,0.24,6.58c0.16,1.87,0.34,3.38,0.51,4.42C234.72,152.66,234.79,153.24,234.75,153.24z"/>
					</g>
				</g>
			</g>
			<g>
				<g>
					<g>
						<path style="fill:#FF725E;" d="M229.38,141.72c-0.07,0-0.2-0.78-0.26-2.07c-0.06-1.29-0.04-3.07,0.17-5.03
							c0.21-1.96,0.58-3.71,0.92-4.95c0.34-1.24,0.63-1.99,0.7-1.97c0.16,0.04-0.66,3.11-1.07,6.98
							C229.4,138.55,229.54,141.72,229.38,141.72z"/>
					</g>
				</g>
			</g>
			<g>
				<g>
					<g>
						<path style="fill:#FF725E;" d="M273.67,129.56c-0.17-0.04,0.57-3.07,0.5-6.88c-0.04-3.81-0.86-6.82-0.7-6.86
							c0.07-0.02,0.36,0.71,0.65,1.94c0.3,1.23,0.56,2.97,0.59,4.91c0.02,1.94-0.19,3.69-0.46,4.93
							C274.01,128.84,273.74,129.58,273.67,129.56z"/>
					</g>
				</g>
			</g>
			<g>
				<g>
					<g>
						<path style="fill:#FF725E;" d="M277.01,129.87c-0.17-0.05,1.08-3.4,1.25-7.74c0.22-4.34-0.72-7.79-0.55-7.83
							c0.06-0.02,0.38,0.82,0.67,2.23s0.52,3.41,0.42,5.62c-0.1,2.21-0.51,4.18-0.93,5.56C277.46,129.09,277.07,129.9,277.01,129.87
							z"/>
					</g>
				</g>
			</g>
		</g>
		<g>
			<g>
				<g>
					<g>
						<g>
							<path style="fill:#263238;" d="M231.39,164.89l0.48-0.12c1.45-2.61,4.39-4.25,7.37-4.4s5.95,1.07,8.18,3.05
								c1.55,1.37,2.78,3.09,4.34,4.46c1.56,1.37,3.64,2.39,5.67,1.97c0.25,0.76-1.16,1.2-1.08,2c0.04,0.38,0.43,0.63,0.8,0.7
								c0.55,0.11,1.11-0.03,1.67-0.01c0.56,0.02,1.19,0.27,1.33,0.81c0.07,0.26,0,0.54-0.07,0.81c-0.62,2.36-1.6,4.7-3.29,6.46
								c-1.7,1.76-4.2,2.86-6.6,2.41c-1.92-0.36-3.52-1.62-5.04-2.84c-2.89-2.32-5.78-4.63-8.67-6.95
								c-1.33-1.07-2.68-2.15-3.69-3.53C231.77,168.31,231.12,166.58,231.39,164.89z"/>
						</g>
					</g>
				</g>
				<g>
					<g>
						<g>
							<path style="fill:#263238;" d="M233.2,165.37c-1.19-0.95-2.55-1.71-4.04-2c-1.49-0.29-3.11-0.06-4.34,0.83
								c-1.14,0.83-1.84,2.11-2.65,3.27s-1.87,2.29-3.27,2.49c-0.24,0.04-0.52,0.05-0.7,0.22c-0.32,0.3-0.09,0.89,0.31,1.07
								c0.4,0.18,0.86,0.09,1.29-0.01c-0.69,0.81-1.67,1.36-2.72,1.53c0.23,1.03,1.43,1.72,2.44,1.41c-0.4,1.64-0.81,3.3-0.8,4.99
								s0.48,3.44,1.62,4.67c1.26,1.36,3.32,2.13,3.87,3.9"/>
						</g>
					</g>
				</g>
				<g>
					<g>
						<g>
							<g>
								<g>
									<g>
										<g>
											<g>
												<g>
													<g>
														<g>
															<g>
																<path style="fill:#FFBE9D;" d="M245.36,224.91l-22.56-0.29l2.52-19.23c0,0-1.54-0.33-1.64-8.7
																	s-0.49-22.58-0.49-22.58l0,0c9.67-4.16,20.84-2.76,29.18,3.67l1.24,0.95L245.36,224.91z"/>
															</g>
														</g>
													</g>
												</g>
											</g>
										</g>
									</g>
								</g>
							</g>
						</g>
					</g>
					<g>
						<g>
							<g>
								<g>
									<g>
										<g>
											<g>
												<g>
													<g>
														<path style="fill:#FFBE9D;" d="M250.99,189.02c0.14-0.06,5.74-1.7,5.56,4.02s-5.88,4.36-5.89,4.19
															C250.66,197.07,250.99,189.02,250.99,189.02z"/>
													</g>
												</g>
											</g>
										</g>
									</g>
								</g>
							</g>
						</g>
					</g>
					<g>
						<g>
							<g>
								<g>
									<g>
										<g>
											<g>
												<g>
													<g>
														<path style="fill:#FFBE9D;" d="M224.16,187.83c-0.14-0.06-5.24-1.44-5.05,4.28c0.18,5.72,5.88,4.36,5.89,4.19
															C225,196.14,224.16,187.83,224.16,187.83z"/>
													</g>
												</g>
											</g>
										</g>
									</g>
								</g>
							</g>
						</g>
					</g>
					<g>
						<g>
							<g>
								<g>
									<g>
										<path style="fill:#263238;" d="M252.84,188.38c-0.85,4.79-0.69,7.31-1.48,10.51c-1.25,5.07-3.76,8.95-8.32,11.48
											s-10.72,2.48-14.64-0.96c-2.72-2.39-4.64-5.09-5.05-8.69c-0.4-3.6-1.46-10.36-1.49-13.98
											c-0.05-6.53,0.17-12.39,0.17-12.39l18.63-3.38l10.6,6.31L252.84,188.38z"/>
									</g>
								</g>
							</g>
						</g>
					</g>
					<g>
						<g>
							<g>
								<g>
									<g>
										<g>
											<path style="fill:#263238;" d="M233.62,213.27c-0.03,0.13,1.44,0.5,3.27,0.29c1.83-0.2,3.18-0.87,3.12-0.99
												c-0.05-0.14-1.43,0.29-3.18,0.47C235.08,213.24,233.64,213.12,233.62,213.27z"/>
										</g>
									</g>
								</g>
							</g>
						</g>
					</g>
					<g>
						<g>
							<g>
								<g>
									<g>
										<path style="fill:#263238;" d="M251.94,196.53c0.55-4.91,0.9-10.53,1.67-15.71c0.29-1.94,0.98-4.74,0.81-6.7
											c-0.17-1.97-0.71-1.37-1.57-3.14c-1.08-2.22-5.22-3.7-7.65-4.19c-2.42-0.49-2.72-2.58-4.58-0.95
											c-1.35-2.03-4.02-3.09-6.4-2.54c-2.38,0.55-4.31,2.67-4.63,5.09c-1.33-1.26-3.51-1.5-5.08-0.55
											c-1.56,0.95-2.36,3-1.85,4.76c-1.34,0.22-2.54,1.15-3.08,2.4c-0.55,1.24-0.42,2.76,0.31,3.9
											c0.86,1.33,2.42,2.06,3.37,3.33c1.1,1.46,1.21,3.59,0.29,5.16"/>
									</g>
								</g>
							</g>
						</g>
						<g>
							<g>
								<g>
									<g>
										<g>
											<path style="fill:#455A64;" d="M227.94,195.51c-0.12-0.03-0.38,2.34,0.64,5.03c1,2.69,2.77,4.3,2.84,4.2
												c0.13-0.1-1.4-1.8-2.35-4.38C228.08,197.79,228.1,195.5,227.94,195.51z"/>
										</g>
									</g>
								</g>
							</g>
						</g>
						<g>
							<g>
								<g>
									<g>
										<g>
											<path style="fill:#455A64;" d="M225.43,191.34c-0.12-0.06-0.84,1.98-0.36,4.53c0.45,2.55,1.85,4.21,1.93,4.11
												c0.14-0.08-1-1.78-1.42-4.2C225.12,193.36,225.59,191.37,225.43,191.34z"/>
										</g>
									</g>
								</g>
							</g>
						</g>
					</g>
				</g>
				<g>
					<g>
						<g>
							<path style="fill:#263238;" d="M248.9,171.56c-1.42-2.23-3.36-4.23-5.81-5.21c-2.46-0.98-5.48-0.78-7.49,0.94"/>
						</g>
					</g>
				</g>
				<g>
					<g>
						<g>
							<g>
								<path style="fill:#455A64;" d="M248.43,184.22c-0.09-0.02,0-0.67,0.18-1.69c0.17-1.02,0.44-2.42,0.43-3.96
									c-0.01-1.54-0.4-2.9-0.85-3.79c-0.45-0.9-0.9-1.37-0.83-1.44c0.05-0.06,0.64,0.3,1.23,1.21c0.6,0.9,1.1,2.37,1.11,4.02
									c0.01,1.64-0.35,3.08-0.64,4.08C248.77,183.65,248.52,184.25,248.43,184.22z"/>
							</g>
						</g>
					</g>
				</g>
				<g>
					<g>
						<g>
							<g>
								<path style="fill:#455A64;" d="M244.58,186.12c-0.17-0.09,0.3-1.22,0.74-2.64c0.45-1.42,0.73-2.61,0.92-2.59
									c0.18,0.02,0.19,1.3-0.29,2.79C245.48,185.17,244.73,186.21,244.58,186.12z"/>
							</g>
						</g>
					</g>
				</g>
				<g>
					<g>
						<g>
							<g>
								<path style="fill:#455A64;" d="M226.68,184.65c-0.06,0.04-0.7-0.65-1.28-2.04c-0.58-1.38-1.01-3.51-0.56-5.81
									c0.46-2.29,1.68-4.1,2.74-5.15c1.07-1.06,1.93-1.46,1.97-1.39c0.06,0.09-0.69,0.61-1.62,1.71
									c-0.93,1.08-2.01,2.82-2.44,4.96c-0.43,2.14-0.1,4.16,0.35,5.51C226.28,183.81,226.77,184.59,226.68,184.65z"/>
							</g>
						</g>
					</g>
				</g>
				<g>
					<g>
						<g>
							<g>
								<path style="fill:#455A64;" d="M247.05,163.36c-0.05,0.08-0.73-0.27-1.84-0.77c-1.1-0.49-2.69-1.12-4.49-1.1
									c-1.82-0.01-3.31,0.83-4.07,1.72c-0.79,0.88-0.94,1.66-1.04,1.63c-0.07,0.01-0.1-0.86,0.68-1.93
									c0.38-0.52,0.97-1.06,1.74-1.45c0.77-0.4,1.71-0.62,2.69-0.63c1.99-0.02,3.64,0.74,4.71,1.35
									C246.5,162.8,247.09,163.29,247.05,163.36z"/>
							</g>
						</g>
					</g>
				</g>
				<g>
					<g>
						<g>
							<g>
								<path style="fill:#455A64;" d="M221.57,168.67c-0.07-0.03,0.06-0.67,0.66-1.51c0.59-0.84,1.72-1.85,3.27-2.3
									s3.05-0.2,3.99,0.19c0.96,0.39,1.42,0.86,1.37,0.92c-0.06,0.09-0.59-0.22-1.52-0.48c-0.92-0.26-2.27-0.4-3.66,0
									s-2.45,1.25-3.09,1.96C221.95,168.16,221.66,168.71,221.57,168.67z"/>
							</g>
						</g>
					</g>
				</g>
				<g>
					<g>
						<g>
							<g>
								<path style="fill:#455A64;" d="M227.71,189.69c-0.02-0.08,0.92-0.33,2.42-1s3.56-1.83,5.51-3.74l1.08-1.05l-0.59,1.39
									c-0.35,0.83-0.64,1.75-0.81,2.72c-0.09,0.47-0.17,1.06,0.01,1.14c0.13,0.15,0.64-0.11,1.06-0.41
									c1.52-0.98,2.81-2.17,3.83-3.39l0.99-1.19l-0.45,1.48c-0.45,1.48-0.88,2.85-1.26,4.1l-0.43-0.26
									c2.62-2.48,3.52-4.69,3.65-4.6c0.04,0.02-0.14,0.57-0.64,1.49c-0.5,0.91-1.34,2.18-2.65,3.49l-0.7,0.7l0.27-0.96
									c0.35-1.25,0.74-2.64,1.16-4.12l0.54,0.29c-1.04,1.29-2.38,2.54-3.96,3.56c-0.23,0.14-0.44,0.3-0.74,0.43
									c-0.26,0.12-0.7,0.23-1.08-0.05c-0.36-0.29-0.38-0.71-0.37-0.99c0.02-0.3,0.07-0.54,0.12-0.8c0.19-1.02,0.5-1.98,0.89-2.85
									l0.49,0.34c-2.06,1.93-4.23,3.05-5.79,3.64C228.7,189.62,227.72,189.74,227.71,189.69z"/>
							</g>
						</g>
					</g>
				</g>
				<g>
					<g>
						<g>
							<path style="fill:#263238;" d="M238.62,167.63c-0.36-0.69-1.05-1.17-1.8-1.39s-1.55-0.19-2.32-0.06
								c-1.88,0.34-3.63,1.35-4.86,2.82c-0.28,0.33-0.53,0.85-0.23,1.17c0.16,0.17,0.41,0.2,0.64,0.22c2.81,0.23,5.64,0.13,8.42-0.3
								"/>
						</g>
					</g>
				</g>
			</g>
			<g>
				<g>
					<g>
						<path style="fill:#FF725E;" d="M257.58,169.28c0.01,0.01-0.1,0.15-0.36,0.33c-0.26,0.18-0.71,0.4-1.33,0.47
							c-0.61,0.07-1.39,0-2.21-0.32c-0.83-0.31-1.65-0.93-2.4-1.71c-0.77-0.78-1.47-1.73-2.32-2.65c-0.85-0.91-1.83-1.83-2.97-2.64
							s-2.45-1.52-3.9-1.89c-1.45-0.38-3.05-0.33-4.6,0.06c-2.28,0.57-4.31,1.88-5.41,3.64l-0.19,0.3l-0.24-0.27
							c-0.77-0.87-1.83-1.39-2.9-1.49c-1.07-0.13-2.12,0.13-3.01,0.53c-1.85,0.83-2.63,2.55-3.52,3.76
							c-0.44,0.61-0.77,1.18-1.17,1.65c-0.4,0.46-0.87,0.74-1.27,0.86c-0.41,0.12-0.74,0.1-0.95,0.08
							c-0.21-0.03-0.32-0.07-0.32-0.08c0-0.06,0.46,0.09,1.21-0.17c0.37-0.13,0.78-0.41,1.13-0.86c0.35-0.44,0.68-1.05,1.09-1.66
							c0.41-0.63,0.83-1.31,1.35-2.07c0.54-0.75,1.3-1.44,2.25-1.9c0.95-0.46,2.08-0.75,3.26-0.62c1.18,0.1,2.38,0.67,3.25,1.64
							l-0.42,0.04c1.18-1.91,3.34-3.3,5.72-3.9c1.62-0.41,3.32-0.46,4.87-0.05c1.54,0.41,2.9,1.16,4.06,2
							c1.17,0.84,2.16,1.79,3.02,2.74c0.85,0.96,1.53,1.91,2.26,2.68c1.4,1.61,3.14,2.2,4.31,2.09
							C257.05,169.77,257.55,169.21,257.58,169.28z"/>
					</g>
				</g>
			</g>
			<g>
				<g>
					<g>
						<path style="fill:#FF725E;" d="M229.25,183.65c-0.05,0.03-0.53-0.65-0.94-1.91c-0.41-1.25-0.69-3.13-0.33-5.14
							c0.37-2.02,1.29-3.67,2.12-4.7c0.83-1.04,1.52-1.51,1.56-1.46c0.06,0.06-0.52,0.63-1.24,1.69c-0.72,1.05-1.54,2.65-1.89,4.57
							c-0.35,1.91-0.15,3.7,0.16,4.94C228.99,182.88,229.33,183.61,229.25,183.65z"/>
					</g>
				</g>
			</g>
			<g>
				<g>
					<g>
						<path style="fill:#FF725E;" d="M248.43,174.17c-0.08,0.05-0.51-0.61-1.35-1.52c-0.84-0.91-2.14-2.04-3.8-2.92
							c-1.67-0.88-3.34-1.31-4.56-1.49c-1.23-0.18-2.01-0.16-2.01-0.25c-0.01-0.06,0.77-0.22,2.05-0.13
							c1.27,0.08,3.04,0.47,4.78,1.39s3.06,2.15,3.84,3.16C248.17,173.41,248.48,174.15,248.43,174.17z"/>
					</g>
				</g>
			</g>
		</g>
		<g>
			<g>
				<path style="fill:#FFBE9D;" d="M215.33,407.83L215.33,407.83l11.73,69.33l15.81,5.88c0,0-0.6-46.69-1.2-52.6
					c-1.2-11.63-1.83-25.68-1.83-25.68L215.33,407.83z"/>
			</g>
		</g>
		<g>
			<g>
				<polygon style="fill:#FFBE9D;" points="253.07,404.03 280.25,477.53 296.26,471.8 276.15,398.91 276.15,398.91 				"/>
			</g>
		</g>
		<g>
			<g>
				<g>
					<path style="fill:#263238;" d="M207.91,342.22l2.81,66.2l32.8-4.08l-1.24-25.1l2.13-5.32l-0.89,2.22l6.25,28.38l29.36-6.23
						l-7.16-68.33c0,0-3.83-9.71-4.08-11.5c-0.26-1.79-10.47-7.16-10.47-7.16l-49.52,24.54L207.91,342.22L207.91,342.22z"/>
				</g>
			</g>
			<g>
				<g>
					<g>
						<path style="fill:#455A64;" d="M254.13,354.12c0.03,0.02-0.12,0.38-0.42,1.01c-0.36,0.74-0.79,1.64-1.29,2.68
							c-1.1,2.26-2.6,5.38-4.22,8.86c-1.58,3.42-3,6.5-4.11,8.91c-0.49,1.05-0.92,1.94-1.27,2.69c-0.31,0.63-0.5,0.97-0.53,0.96
							c-0.03-0.02,0.09-0.39,0.34-1.04c0.25-0.66,0.63-1.6,1.11-2.76c0.97-2.32,2.35-5.51,3.97-8.99c1.62-3.48,3.18-6.59,4.37-8.8
							c0.59-1.11,1.09-2,1.45-2.6C253.88,354.43,254.1,354.1,254.13,354.12z"/>
					</g>
				</g>
			</g>
		</g>
		<g>
			<g>
				<path style="fill:#F1C72F;" d="M222.61,218.91c-1.35,0.19-18.14,6.91-20.47,11.14c-1.18,2.15-4.87,33.02-4.87,33.02l20.12,0.77
					c0,0-4.06,33.51-3.1,36.41c0,0-1.82,9.19-2.45,11.03c-1.42,4.14-3.93,24.54-3.93,24.54s68.28-3.99,67.9-4.57
					c-0.39-0.58-1.75-15.82-1.75-15.82l-2.1-84.9l-12.38-11.71l-11.44-0.88L222.61,218.91z"/>
			</g>
		</g>
		<g>
			<g>
				<g>
					<path style="fill:#263238;" d="M198.2,263.11c0-0.02,0.15-0.02,0.43-0.03c0.33,0,0.74,0,1.23,0c1.14,0.02,2.69,0.05,4.62,0.08
						c4.02,0.11,9.57,0.26,16.02,0.44l-0.27,0.26c0.01-3.4-0.1-7.11-0.34-10.97c-0.15-2.29-0.33-4.52-0.56-6.68
						c-0.12-1.07-0.24-2.13-0.36-3.17c-0.13-1.04-0.24-2.03-0.48-2.99c-0.46-1.91-0.97-3.77-1.6-5.38c-0.67-1.6-1.81-2.82-2.99-3.7
						c-2.43-1.73-4.99-2.02-6.62-1.9c-1.67,0.13-2.54,0.51-2.56,0.44c0,0,0.84-0.46,2.54-0.66c1.66-0.19,4.31,0.03,6.86,1.79
						c1.24,0.89,2.46,2.16,3.18,3.83c0.68,1.68,1.18,3.49,1.67,5.44c0.25,0.98,0.37,2.02,0.5,3.04c0.12,1.04,0.25,2.1,0.37,3.17
						c0.23,2.16,0.42,4.4,0.57,6.7c0.24,3.87,0.34,7.6,0.31,11v0.27l-0.27-0.01c-6.46-0.26-12-0.48-16.02-0.64
						c-1.92-0.1-3.47-0.17-4.61-0.23c-0.49-0.03-0.9-0.06-1.23-0.08C198.34,263.15,198.2,263.13,198.2,263.11z"/>
				</g>
			</g>
		</g>
		<g>
			<g>
				<polygon style="fill:#F1C72F;" points="278.74,213.46 293.29,231.08 276.93,241.36 258.35,223.29 259.58,218.83 				"/>
			</g>
		</g>
		<g style="opacity:0.3;">
			<g>
				<g>
					<path d="M218.49,239.67c0.62,6.81,1.24,13.61,1.86,20.42c0.1,1.12,0.19,2.33-0.39,3.29c-0.58,0.96-2.11,1.4-2.83,0.54
						l-2.33,23.75c2.67-5.84,4.66-11.98,5.94-18.27c0.41-2.04,0.75-4.1,0.92-6.18C222.29,255.29,220.38,247.4,218.49,239.67z"/>
				</g>
			</g>
		</g>
		<g>
			<g>
				<g>
					<g>
						<path style="fill:#FFBE9D;" d="M202.43,343.54c1.57,1.46,2.57,3.52,2.76,5.65c0.07,0.85,0.02,1.73,0.24,2.55
							c0.38,1.43,1.52,2.54,2.07,3.91c0.23,0.58,0.36,1.24,0.18,1.85c-0.18,0.6-0.73,1.12-1.36,1.11c-0.49-0.01-0.92-0.31-1.25-0.66
							c-1.28-1.36-1.5-3.49-2.85-4.77"/>
					</g>
				</g>
				<g>
					<g>
						<g>
							<path style="fill:#EB996E;" d="M202.2,353.18c0.02-0.02,0.32,0.17,0.7,0.67c0.39,0.49,0.78,1.32,1.25,2.3
								c0.24,0.48,0.52,1.01,0.92,1.47c0.38,0.46,0.96,0.89,1.52,0.7c0.57-0.18,0.96-0.85,0.9-1.55c-0.04-0.71-0.4-1.43-0.83-2.13
								c-0.43-0.7-0.92-1.38-1.25-2.15c-0.35-0.77-0.41-1.6-0.43-2.32c0-1.45-0.27-2.69-0.69-3.68c-0.85-1.99-1.95-2.89-1.86-2.96
								c0.02-0.02,0.31,0.17,0.74,0.62c0.43,0.45,1,1.16,1.48,2.18c0.49,1,0.82,2.36,0.84,3.82c0.03,0.72,0.1,1.44,0.41,2.13
								c0.3,0.69,0.77,1.35,1.22,2.07c0.44,0.72,0.85,1.51,0.9,2.39c0.08,0.87-0.43,1.82-1.29,2.07c-0.43,0.13-0.89,0.02-1.21-0.17
								c-0.34-0.2-0.6-0.46-0.8-0.72c-0.43-0.53-0.7-1.09-0.92-1.6c-0.43-1.02-0.75-1.83-1.07-2.35
								C202.41,353.46,202.17,353.22,202.2,353.18z"/>
						</g>
					</g>
				</g>
			</g>
			<g>
				<g>
					<path style="fill:#FFBE9D;" d="M199.97,263.15c0,0-3.72,21.25-3.9,23.11c-0.18,1.85-3.33,59.44-3.33,59.44s-1.48,12.78,0,15.37
						s4.19,3.33,5.33,3.33s7.18-4.02,7.18-4.02l0,0l-1.82-14.17l-1-2.66l1.78-9.38L215,285.81l2.39-21.96L199.97,263.15z"/>
				</g>
			</g>
			<g>
				<g>
					<g>
						<path style="fill:#FFBE9D;" d="M196.54,342.21c2.46,3.1,3.01,7.61,1.35,11.2c2.28,0.29,4.56,0.58,6.84,0.87
							c0.38,0.05,0.8,0.12,1.04,0.42c0.33,0.4,0.14,1.05-0.26,1.38c-0.4,0.33-0.93,0.43-1.45,0.52c-1.89,0.32-3.78,0.59-5.68,0.81"
							/>
					</g>
				</g>
				<g>
					<g>
						<g>
							<path style="fill:#EB996E;" d="M198.38,357.41c0-0.04,0.39-0.13,1.1-0.27s1.75-0.31,3.03-0.52c0.63-0.12,1.36-0.19,2.07-0.36
								c0.34-0.09,0.69-0.24,0.89-0.5c0.2-0.25,0.28-0.65,0.12-0.87c-0.16-0.24-0.56-0.32-1.01-0.36c-0.45-0.05-0.9-0.11-1.37-0.17
								c-0.93-0.12-1.89-0.24-2.87-0.36c-0.85-0.11-1.69-0.22-2.5-0.32l-0.37-0.05l0.15-0.34c1.38-3.02,1.04-6.13,0.36-8.07
								c-0.68-1.98-1.55-2.97-1.47-3.02c0.02-0.02,0.25,0.21,0.61,0.68c0.35,0.47,0.8,1.22,1.19,2.22c0.79,1.97,1.23,5.21-0.2,8.42
								l-0.21-0.38c0.81,0.1,1.64,0.21,2.5,0.31c0.98,0.13,1.94,0.25,2.87,0.37c0.46,0.06,0.92,0.12,1.36,0.18
								c0.42,0.06,1,0.1,1.36,0.6c0.33,0.52,0.13,1.1-0.16,1.46c-0.33,0.38-0.76,0.54-1.15,0.63c-0.78,0.17-1.47,0.21-2.13,0.3
								c-1.29,0.16-2.34,0.28-3.06,0.35C198.79,357.42,198.39,357.45,198.38,357.41z"/>
						</g>
					</g>
				</g>
			</g>
			<g>
				<g>
					<g>
						<path style="fill:#FFBE9D;" d="M205.25,360.37c0.53-0.12,1.08-0.26,1.48-0.63s0.56-1.05,0.2-1.45
							c-0.4-0.45-2.06,0.06-2.63,0.24c0.38-0.14,1.7-0.66,1.98-0.96c0.27-0.29,0.39-0.78,0.16-1.1c-0.26-0.35-0.78-0.46-1.2-0.33
							c-1.81,0.56-4.68,1.27-6.85,1.27"/>
					</g>
				</g>
				<g>
					<g>
						<g>
							<path style="fill:#EB996E;" d="M198.38,357.41c0-0.08,0.99-0.12,2.54-0.43c0.78-0.15,1.7-0.37,2.71-0.64
								c0.51-0.14,1.02-0.29,1.6-0.47c0.34-0.08,0.71-0.06,1.05,0.12c0.34,0.16,0.61,0.61,0.54,1.01c-0.04,0.33-0.18,0.61-0.44,0.84
								c-0.25,0.19-0.47,0.29-0.69,0.4c-0.45,0.21-0.88,0.38-1.31,0.54l-0.17-0.49c0.85-0.23,1.63-0.5,2.47-0.35
								c0.22,0.03,0.46,0.25,0.53,0.43c0.09,0.2,0.11,0.4,0.09,0.59c-0.05,0.37-0.22,0.66-0.44,0.87c-0.45,0.39-0.9,0.47-1.18,0.53
								c-0.29,0.05-0.45,0.05-0.45,0.02c-0.01-0.03,0.14-0.09,0.41-0.19c0.26-0.11,0.67-0.24,0.99-0.59
								c0.15-0.17,0.27-0.41,0.28-0.68c0.01-0.25-0.1-0.54-0.34-0.56c-0.6-0.08-1.42,0.17-2.22,0.42c-0.14,0.04-0.28-0.03-0.33-0.17
								c-0.04-0.13,0.03-0.27,0.16-0.32c0.41-0.16,0.84-0.34,1.26-0.54c0.21-0.1,0.43-0.22,0.58-0.33c0.11-0.1,0.22-0.3,0.24-0.47
								c0.08-0.41-0.48-0.67-0.92-0.56c-0.52,0.16-1.09,0.31-1.6,0.44c-1.03,0.25-1.98,0.43-2.78,0.54
								C199.39,357.58,198.38,357.48,198.38,357.41z"/>
						</g>
					</g>
				</g>
			</g>
		</g>
		<g>
			<g>
				<g>
					<g>
						<path style="fill:#455A64;" d="M222.36,383.65c-1.02,0-2.02-0.11-3-0.32c-5.56-1.24-10.46-6.09-12.5-12.37
							c-1.75-5.4-1.53-11.83,0.64-18.11c0.43-1.24,0.93-2.43,1.5-3.56c0.35-2.62,1.21-5.11,2.69-7.21
							c2.28-3.25,6.07-5.45,10.38-6.04c4.62-0.63,9.25,0.61,12.69,3.42c5.48,4.48,8.31,12.74,7.38,21.57
							c-0.49,4.66-2.06,11.31-6.71,16.48C231.91,381.41,227.03,383.65,222.36,383.65z M209.12,356c-1.3,5-1.28,9.96,0.09,14.19
							c1.77,5.46,5.97,9.67,10.69,10.72c4.62,1.03,10-0.96,13.69-5.07c3.28-3.65,5.45-9.01,6.09-15.09
							c0.66-6.27-0.69-14.66-6.49-19.39c-1.78-1.45-3.94-2.41-6.26-2.81c3.25,1,6.33,3.17,7.75,5.87c1.93,3.69,2.46,8.45,1.55,14.16
							c-0.61,3.83-2.43,10.64-7.83,13.13c-5.28,2.43-11.17-0.57-14.41-4.39C211.58,364.45,209.8,360.32,209.12,356z M211.4,350.07
							c-0.6,5.56,1.29,11.87,4.49,15.65c2.65,3.14,7.38,5.65,11.49,3.75c4.36-2.01,5.9-7.92,6.43-11.27
							c0.82-5.17,0.38-9.42-1.3-12.63c-1.81-3.44-7.82-6.02-11.29-4.86C216.76,342.37,213.45,346.21,211.4,350.07z"/>
					</g>
				</g>
			</g>
			<g>
				<g>
					<g>
						<path style="fill:#263238;" d="M228.84,339.02c-0.02,0.1-1.32-0.28-3.46-0.42c-2.11-0.15-5.17,0.13-7.94,1.86
							c-2.72,1.76-4.29,4.44-5.03,6.4c-0.76,2-0.7,3.37-0.81,3.36c-0.03,0-0.08-0.34-0.05-0.95c0.02-0.61,0.16-1.5,0.49-2.54
							c0.67-2.06,2.23-4.88,5.1-6.74c2.9-1.81,6.12-2.03,8.26-1.78c1.09,0.12,1.95,0.31,2.53,0.48
							C228.53,338.86,228.85,338.99,228.84,339.02z"/>
					</g>
				</g>
			</g>
			<g>
				<g>
					<g>
						<path style="fill:#263238;" d="M210,359.7c-0.13,0.07-1.28-2.7-1.42-6.32c-0.22-3.63,0.74-6.48,0.89-6.42
							c0.14,0.04-0.55,2.85-0.34,6.39C209.26,356.89,210.14,359.65,210,359.7z"/>
					</g>
				</g>
			</g>
			<g>
				<g>
					<g>
						<path style="fill:#263238;" d="M211.59,354.45c-0.01,0.06-0.64-0.09-1.37,0.13c-0.73,0.2-1.18,0.67-1.23,0.62
							c-0.05-0.03,0.36-0.6,1.17-0.83C210.96,354.13,211.62,354.4,211.59,354.45z"/>
					</g>
				</g>
			</g>
			<g>
				<g>
					<g>
						<path style="fill:#263238;" d="M214.08,363.28c0.01,0.07-0.56,0.13-1.13,0.49c-0.58,0.35-0.88,0.83-0.93,0.8
							c-0.05-0.02,0.19-0.6,0.82-0.98C213.46,363.18,214.09,363.22,214.08,363.28z"/>
					</g>
				</g>
			</g>
			<g>
				<g>
					<g>
						<path style="fill:#263238;" d="M218.63,371.14c-0.06,0.02-0.18-0.66,0.26-1.33c0.43-0.68,1.09-0.86,1.1-0.79
							c0.03,0.06-0.53,0.3-0.91,0.91C218.68,370.53,218.7,371.14,218.63,371.14z"/>
					</g>
				</g>
			</g>
			<g>
				<g>
					<g>
						<path style="fill:#263238;" d="M229.54,371.16c0.02,0.06-0.71,0.07-1.27-0.55c-0.56-0.61-0.48-1.34-0.43-1.32
							c0.06-0.01,0.09,0.63,0.59,1.17C228.92,371.01,229.55,371.1,229.54,371.16z"/>
					</g>
				</g>
			</g>
			<g>
				<g>
					<g>
						<path style="fill:#263238;" d="M235.64,361.43c0.05,0.03-0.53,0.49-1.34,0.29c-0.81-0.22-1.09-0.9-1.03-0.91
							c0.05-0.04,0.38,0.51,1.08,0.69S235.62,361.37,235.64,361.43z"/>
					</g>
				</g>
			</g>
			<g>
				<g>
					<g>
						<path style="fill:#263238;" d="M236.57,351.38c0.07,0-0.26,0.69-1.1,0.83c-0.85,0.11-1.36-0.46-1.29-0.48
							c0.03-0.06,0.54,0.37,1.26,0.26C236.15,351.88,236.52,351.33,236.57,351.38z"/>
					</g>
				</g>
			</g>
			<g>
				<g>
					<g>
						<path style="fill:#263238;" d="M232.55,341.67c0.06-0.03,0.12,0.76-0.55,1.34c-0.68,0.57-1.45,0.39-1.41,0.33
							c-0.01-0.06,0.68,0,1.27-0.5C232.44,342.35,232.49,341.66,232.55,341.67z"/>
					</g>
				</g>
			</g>
			<g>
				<g>
					<g>
						<path style="fill:#263238;" d="M220.94,340.73c0.03,0.01-0.09,0.16-0.3,0.07c-0.2-0.07-0.37-0.31-0.44-0.58
							c-0.17-0.55,0.04-1,0.09-0.97c0.06,0.02-0.04,0.43,0.12,0.91c0.07,0.24,0.18,0.42,0.3,0.5
							C220.82,340.75,220.92,340.71,220.94,340.73z"/>
					</g>
				</g>
			</g>
			<g>
				<g>
					<g>
						<path style="fill:#263238;" d="M214.17,346.18c-0.01,0.06-0.38,0.02-0.69-0.28c-0.32-0.3-0.38-0.66-0.32-0.68
							s0.2,0.26,0.47,0.51C213.9,346,214.19,346.12,214.17,346.18z"/>
					</g>
				</g>
			</g>
			<g>
				<g>
					<g>
						<path style="fill:#263238;" d="M212.92,345.27c-0.06,0.03-0.2-0.7-0.89-1.14c-0.69-0.45-1.4-0.28-1.4-0.34
							c-0.05-0.05,0.73-0.35,1.52,0.16C212.93,344.46,212.98,345.29,212.92,345.27z"/>
					</g>
				</g>
			</g>
			<g>
				<g>
					<g>
						<path style="fill:#263238;" d="M219.88,339.13c-0.07,0-0.08-0.59-0.41-1.23c-0.32-0.64-0.78-1.01-0.74-1.06
							c0.02-0.05,0.59,0.26,0.94,0.96C220.02,338.49,219.94,339.14,219.88,339.13z"/>
					</g>
				</g>
			</g>
			<g>
				<g>
					<g>
						<path style="fill:#263238;" d="M229.54,336.63c0.05-0.04,0.27,0.66-0.15,1.38c-0.41,0.72-1.12,0.88-1.12,0.82
							c-0.03-0.06,0.57-0.29,0.93-0.93C229.58,337.26,229.48,336.63,229.54,336.63z"/>
					</g>
				</g>
			</g>
			<g>
				<g>
					<g>
						<path style="fill:#263238;" d="M238.51,343.88c0.06,0.01-0.16,0.58-0.77,0.94c-0.6,0.37-1.2,0.3-1.19,0.25
							c0-0.07,0.54-0.1,1.08-0.44C238.17,344.31,238.45,343.85,238.51,343.88z"/>
					</g>
				</g>
			</g>
			<g>
				<g>
					<g>
						<path style="fill:#263238;" d="M241.95,353.87c0.06,0.03-0.32,0.54-1.05,0.66c-0.72,0.13-1.25-0.23-1.2-0.27
							c0.03-0.06,0.53,0.17,1.17,0.06C241.5,354.21,241.9,353.83,241.95,353.87z"/>
					</g>
				</g>
			</g>
			<g>
				<g>
					<g>
						<path style="fill:#263238;" d="M241.67,364.16c0.06,0.03-0.48,0.56-1.33,0.4c-0.84-0.18-1.13-0.89-1.07-0.89
							c0.05-0.04,0.39,0.53,1.11,0.67C241.1,364.49,241.64,364.1,241.67,364.16z"/>
					</g>
				</g>
			</g>
			<g>
				<g>
					<g>
						<path style="fill:#263238;" d="M236.17,376.37c0,0.03-0.61,0.05-1.22-0.42c-0.29-0.25-0.43-0.59-0.43-0.84s0.1-0.39,0.12-0.37
							c0.03,0.01-0.01,0.15,0.03,0.36s0.17,0.48,0.42,0.69C235.6,376.19,236.2,376.29,236.17,376.37z"/>
					</g>
				</g>
			</g>
			<g>
				<g>
					<g>
						<path style="fill:#263238;" d="M227.36,383.06c-0.01,0.06-0.67-0.29-0.85-1.12c-0.2-0.82,0.22-1.43,0.26-1.38
							c0.06,0.02-0.23,0.6-0.05,1.33C226.89,382.63,227.41,383.01,227.36,383.06z"/>
					</g>
				</g>
			</g>
			<g>
				<g>
					<g>
						<path style="fill:#263238;" d="M216.05,382.25c-0.05,0.04-0.38-0.58-0.19-1.37c0.18-0.79,0.76-1.19,0.78-1.14
							c0.05,0.05-0.41,0.47-0.57,1.19C215.9,381.64,216.11,382.23,216.05,382.25z"/>
					</g>
				</g>
			</g>
			<g>
				<g>
					<g>
						<path style="fill:#263238;" d="M210.54,373.63c0.01,0.06-0.56,0.13-1.02,0.6c-0.48,0.46-0.55,1.03-0.61,1.02
							c-0.06,0.02-0.09-0.65,0.46-1.18C209.89,373.54,210.56,373.57,210.54,373.63z"/>
					</g>
				</g>
			</g>
			<g>
				<g>
					<g>
						<path style="fill:#263238;" d="M208.16,366.26c-0.02,0.06-0.52-0.09-1.11,0.09c-0.59,0.16-0.94,0.56-0.99,0.52
							c-0.06-0.02,0.26-0.54,0.93-0.73C207.65,365.95,208.19,366.22,208.16,366.26z"/>
					</g>
				</g>
			</g>
		</g>
		<g>
			<g>
				<g>
					<g>
						<g>
							<g>
								<g>
									<path style="fill:#F1C72F;" d="M243.97,465.24l1.79,31.98l-38.47,2.57c-0.02-3.69,21-12.37,21-12.37l-2.76-19.36
										L243.97,465.24z"/>
								</g>
							</g>
						</g>
					</g>
				</g>
			</g>
		</g>
		<g style="opacity:0.6;">
			<g>
				<g>
					<g>
						<g>
							<g>
								<g>
									<g>
										<g>
											<path style="fill:#FFFFFF;" d="M238.47,484.93c0.76,0.15,1.33,0.96,1.2,1.72c-0.12,0.76-0.93,1.35-1.7,1.21
												c-0.76-0.14-1.47-1.08-1.27-1.83c0.21-0.74,1.2-1.38,1.9-1.06"/>
										</g>
									</g>
								</g>
							</g>
						</g>
					</g>
				</g>
			</g>
		</g>
		<g style="opacity:0.6;">
			<g>
				<g>
					<g>
						<g>
							<g>
								<g>
									<g>
										<path style="fill:#FFFFFF;" d="M245.75,497.22l-0.31-3.11l-36.76,3.62c0,0-1.66,0.86-1.39,2.05L245.75,497.22z"/>
									</g>
								</g>
							</g>
						</g>
					</g>
				</g>
			</g>
		</g>
		<g>
			<g>
				<g>
					<g>
						<g>
							<g>
								<g>
									<g>
										<g>
											<path style="fill:#263238;" d="M227.73,487.8c0.02,0.19,0.96,0.21,1.93,0.75c0.98,0.52,1.51,1.3,1.68,1.21
												c0.17-0.05-0.18-1.15-1.36-1.79C228.8,487.33,227.68,487.63,227.73,487.8z"/>
										</g>
									</g>
								</g>
							</g>
						</g>
					</g>
				</g>
			</g>
		</g>
		<g>
			<g>
				<g>
					<g>
						<g>
							<g>
								<g>
									<g>
										<g>
											<path style="fill:#263238;" d="M222.81,489.89c-0.03,0.18,0.8,0.45,1.49,1.2c0.71,0.73,0.93,1.58,1.12,1.56
												c0.18,0.02,0.24-1.09-0.64-2.01C223.91,489.71,222.8,489.71,222.81,489.89z"/>
										</g>
									</g>
								</g>
							</g>
						</g>
					</g>
				</g>
			</g>
		</g>
		<g>
			<g>
				<g>
					<g>
						<g>
							<g>
								<g>
									<g>
										<g>
											<path style="fill:#263238;" d="M220.9,494.68c0.17,0.03,0.37-0.93-0.18-1.92c-0.54-1-1.46-1.35-1.52-1.19
												c-0.1,0.16,0.51,0.68,0.95,1.5C220.61,493.88,220.72,494.67,220.9,494.68z"/>
										</g>
									</g>
								</g>
							</g>
						</g>
					</g>
				</g>
			</g>
		</g>
		<g>
			<g>
				<g>
					<g>
						<g>
							<g>
								<g>
									<g>
										<g>
											<path style="fill:#263238;" d="M227.69,482.63c0.09,0.17,0.93-0.15,2-0.15c1.07-0.02,1.92,0.28,2,0.11
												c0.1-0.14-0.75-0.78-2.01-0.77C228.43,481.83,227.59,482.49,227.69,482.63z"/>
										</g>
									</g>
								</g>
							</g>
						</g>
					</g>
				</g>
			</g>
		</g>
		<g>
			<g>
				<g>
					<path style="fill:#263238;" d="M227.16,479.53c-0.03,0.01-0.16-0.38-0.17-1.1c0-0.71,0.14-1.79,0.79-2.93
						c0.33-0.56,0.77-1.14,1.39-1.62c0.3-0.23,0.77-0.5,1.29-0.32c0.49,0.17,0.79,0.65,0.86,1.13c0.1,1.86-1.17,3.7-3.05,4.5
						c-1.93,0.81-4.08,0.18-5.34-1.04c-0.31-0.31-0.61-0.63-0.78-1.06c-0.08-0.21-0.14-0.47-0.06-0.72
						c0.07-0.25,0.26-0.47,0.48-0.57c0.45-0.19,0.86-0.09,1.21,0.01c0.35,0.12,0.65,0.26,0.94,0.41c1.15,0.6,1.92,1.34,2.38,1.88
						c0.46,0.55,0.64,0.91,0.61,0.93c-0.08,0.09-0.92-1.36-3.16-2.46c-0.54-0.24-1.25-0.59-1.78-0.36
						c-0.23,0.11-0.31,0.39-0.17,0.69c0.13,0.3,0.4,0.6,0.68,0.87c1.14,1.07,3.09,1.62,4.77,0.9c1.67-0.68,2.83-2.43,2.76-3.92
						c-0.04-0.34-0.25-0.64-0.52-0.75c-0.26-0.1-0.57,0.03-0.85,0.23c-0.56,0.42-1,0.95-1.33,1.46c-0.65,1.04-0.85,2.05-0.91,2.74
						C227.15,479.13,227.21,479.52,227.16,479.53z"/>
				</g>
			</g>
		</g>
		<g>
			<g>
				<g>
					<g>
						<g>
							<g>
								<g>
									<path style="fill:#F1C72F;" d="M293.4,454.84l7.32,31.23l-36.96,10.98c-0.83-3.59,17.31-16.64,17.31-16.64l-7.49-19.81
										L293.4,454.84z"/>
								</g>
							</g>
						</g>
					</g>
				</g>
			</g>
		</g>
		<g style="opacity:0.6;">
			<g>
				<g>
					<g>
						<g>
							<g>
								<g>
									<g>
										<g>
											<path style="fill:#FFFFFF;" d="M290.92,475.68c0.77-0.02,1.5,0.64,1.55,1.41s-0.62,1.52-1.39,1.55
												c-0.77,0.03-1.68-0.73-1.64-1.5c0.04-0.77,0.87-1.61,1.62-1.46"/>
										</g>
									</g>
								</g>
							</g>
						</g>
					</g>
				</g>
			</g>
		</g>
		<g style="opacity:0.6;">
			<g>
				<g>
					<g>
						<g>
							<g>
								<g>
									<g>
										<path style="fill:#FFFFFF;" d="M300.72,486.07l-0.99-2.96l-35.07,11.63c0,0-1.43,1.2-0.91,2.31L300.72,486.07z"/>
									</g>
								</g>
							</g>
						</g>
					</g>
				</g>
			</g>
		</g>
		<g>
			<g>
				<g>
					<g>
						<g>
							<g>
								<g>
									<g>
										<g>
											<path style="fill:#263238;" d="M280.89,480.56c0.06,0.18,0.99-0.01,2.05,0.31c1.07,0.29,1.76,0.93,1.9,0.81
												c0.16-0.08-0.43-1.08-1.72-1.44C281.83,479.87,280.8,480.41,280.89,480.56z"/>
										</g>
									</g>
								</g>
							</g>
						</g>
					</g>
				</g>
			</g>
		</g>
		<g>
			<g>
				<g>
					<g>
						<g>
							<g>
								<g>
									<g>
										<g>
											<path style="fill:#263238;" d="M276.73,483.97c0.01,0.19,0.88,0.26,1.72,0.84c0.86,0.56,1.25,1.34,1.43,1.27
												c0.18-0.02-0.01-1.12-1.07-1.82C277.77,483.55,276.68,483.79,276.73,483.97z"/>
										</g>
									</g>
								</g>
							</g>
						</g>
					</g>
				</g>
			</g>
		</g>
		<g>
			<g>
				<g>
					<g>
						<g>
							<g>
								<g>
									<g>
										<g>
											<path style="fill:#263238;" d="M275.93,489.06c0.18-0.01,0.16-0.99-0.6-1.84c-0.75-0.86-1.72-0.99-1.75-0.82
												c-0.06,0.18,0.65,0.55,1.26,1.25C275.47,488.35,275.74,489.09,275.93,489.06z"/>
										</g>
									</g>
								</g>
							</g>
						</g>
					</g>
				</g>
			</g>
		</g>
		<g>
			<g>
				<g>
					<g>
						<g>
							<g>
								<g>
									<g>
										<g>
											<path style="fill:#263238;" d="M279.33,475.92c0.12,0.14,0.88-0.35,1.92-0.59c1.04-0.25,1.93-0.15,1.98-0.33
												c0.07-0.16-0.91-0.6-2.13-0.31C279.88,474.97,279.2,475.8,279.33,475.92z"/>
										</g>
									</g>
								</g>
							</g>
						</g>
					</g>
				</g>
			</g>
		</g>
		<g>
			<g>
				<g>
					<path style="fill:#263238;" d="M278.7,472.9c-0.03,0.01-0.24-0.33-0.41-1.03c-0.16-0.7-0.26-1.78,0.13-3.04
						c0.2-0.62,0.51-1.28,1-1.89c0.24-0.29,0.64-0.66,1.18-0.6c0.51,0.06,0.92,0.46,1.09,0.91c0.51,1.8-0.33,3.86-1.98,5.07
						c-1.7,1.22-3.94,1.07-5.43,0.16c-0.37-0.24-0.73-0.48-1-0.86c-0.13-0.19-0.23-0.42-0.22-0.69c0.01-0.26,0.15-0.51,0.35-0.66
						c0.4-0.28,0.82-0.28,1.19-0.25c0.37,0.05,0.69,0.11,1.01,0.19c1.26,0.33,2.16,0.88,2.73,1.31s0.82,0.75,0.8,0.77
						c-0.06,0.11-1.19-1.13-3.62-1.7c-0.58-0.11-1.35-0.3-1.82,0.04c-0.2,0.16-0.21,0.44-0.01,0.71c0.19,0.27,0.52,0.5,0.86,0.7
						c1.35,0.8,3.37,0.9,4.85-0.18c1.48-1.03,2.22-3,1.83-4.43c-0.11-0.33-0.39-0.57-0.67-0.61c-0.27-0.05-0.55,0.15-0.78,0.41
						c-0.46,0.54-0.77,1.14-0.98,1.72c-0.41,1.16-0.38,2.19-0.29,2.87C278.61,472.51,278.75,472.88,278.7,472.9z"/>
				</g>
			</g>
		</g>
		<g>
			<g style="opacity:0.3;">
				<g>
					<g>
						<path d="M274.06,315.2l-62.22-3.91c18.84,5.95,38.44,10.31,58.18,10.95c1.15,0.04,4.61-0.72,4.61-0.72
							S273.93,314.9,274.06,315.2z"/>
					</g>
				</g>
			</g>
			<g>
				<g>
					<path style="fill:#263238;" d="M213.71,222.53c0,0,18.85,7.08,20.51,8.91c3.99,4.4,8.1,9.92,8.1,21.14v42.19
						c0,3.61-3,6.5-6.6,6.35l-21.42-0.85c-1.54,2.96-2.3,6.69-2.45,11.03c0,0,26.1,3.64,38.22,5.68
						c12.12,2.04,26.46-0.53,26.46-0.53l-4.56-85.9l-20.27-12.21l-3.55-0.38c0,0,2.31,2.69,0.06,4.23
						c-3.03,2.07-13.42,1.29-13.42,1.29l-13.53-4.14L213.71,222.53z"/>
				</g>
			</g>
			<g>
				<g>
					<path style="fill:#455A64;" d="M249.98,223.8c-3.85,2.38-6.01,6.74-5.78,11.26c0.96,18.5,3.75,72.38,3.94,72.93
						c0.22,0.67,11.42,8.09,18.35,8.86c4.36,0.49,14.45-0.85,21.34-1.92c4.06-0.63,7.08-4.1,7.14-8.22l0.17-11.09
						c0,0,4.49-1.74,4.68-2.2c0.55-1.38,0.31-13.56,0.13-20.35c-0.07-2.77-1.68-5.27-4.18-6.47l-1.99-0.96c0,0,0-22.55-0.49-34.53
						c-0.17-4.24-2.94-7.92-6.96-9.26l0,0c-1.14-0.38-2.34-0.56-3.54-0.52c-6.82,0.22-30.52,1.07-32.73,2.41
						C250.03,223.76,250.01,223.78,249.98,223.8z"/>
				</g>
			</g>
			<g>
				<g>
					<g>
						<path style="fill:#263238;" d="M290,224.02c0,0.01-0.1,0.02-0.3,0.03c-0.23,0.01-0.52,0.03-0.89,0.04
							c-0.82,0.03-1.96,0.08-3.41,0.14c-1.5,0.07-3.31,0.16-5.4,0.26c-2.1,0.13-4.5,0.27-7.11,0.66c-2.63,0.39-5.54,0.61-8.51,1.49
							c-1.47,0.44-2.96,1.1-4.11,2.22c-1.22,1.09-1.64,2.78-1.99,4.47c-0.62,3.42-0.88,7.12-0.71,10.9
							c0.12,3.82,0.25,7.77,0.37,11.81c0.47,16.18,0.9,30.82,1.21,41.47c0.13,5.28,0.23,9.56,0.3,12.57
							c0.02,1.45,0.04,2.6,0.05,3.42c0,0.36,0,0.66,0,0.89c0,0.2-0.01,0.3-0.02,0.3c-0.01,0-0.02-0.1-0.04-0.3
							c-0.01-0.23-0.03-0.52-0.05-0.89c-0.04-0.82-0.09-1.96-0.16-3.41c-0.11-3.01-0.28-7.29-0.48-12.56
							c-0.35-10.64-0.84-25.28-1.37-41.46c-0.12-4.05-0.25-8-0.36-11.81c-0.16-3.84,0.11-7.54,0.76-11.02
							c0.18-0.87,0.39-1.72,0.7-2.54c0.14-0.42,0.39-0.79,0.6-1.18c0.28-0.34,0.51-0.72,0.84-0.99c1.25-1.21,2.82-1.87,4.32-2.31
							c3.04-0.88,5.97-1.08,8.59-1.44c2.64-0.37,5.05-0.48,7.15-0.58c2.11-0.09,3.92-0.14,5.41-0.17c1.45-0.01,2.6-0.03,3.42-0.03
							c0.36,0,0.66,0.01,0.89,0.01C289.9,224.01,290,224.01,290,224.02z"/>
					</g>
				</g>
			</g>
			<g>
				<g>
					<g>
						<path style="fill:#263238;" d="M293.96,266.15c0.01,0.15-7.95,0.92-17.78,1.71c-9.84,0.79-17.82,1.31-17.83,1.16
							c-0.01-0.15,7.95-0.92,17.78-1.71C285.97,266.52,293.95,266,293.96,266.15z"/>
					</g>
				</g>
			</g>
			<g>
				<g>
					<g>
						<path style="fill:#263238;" d="M298.25,269.7c0,0.02-0.23,0.05-0.67,0.11c-0.49,0.06-1.14,0.13-1.95,0.23
							c-1.75,0.18-4.22,0.44-7.27,0.76c-6.25,0.61-14.93,1.46-24.89,2.44l0.24-0.3c0.46,3.36,0.21,6.92,0.39,10.53
							c0.13,3.11,0.76,6.14,2.21,8.68c1.41,2.54,3.79,4.38,6.43,4.82c1.31,0.26,2.63,0.31,3.91,0.34c1.29,0.01,2.54,0.02,3.75,0.03
							c2.42,0,4.66-0.07,6.71-0.25c4.09-0.35,7.32-1.22,9.43-2.12c0.54-0.2,0.99-0.43,1.39-0.62c0.4-0.18,0.73-0.36,0.99-0.51
							c0.53-0.29,0.81-0.44,0.82-0.42c0,0-1.01,0.8-3.12,1.75c-2.1,0.96-5.36,1.9-9.47,2.31c-2.06,0.21-4.32,0.3-6.74,0.32
							c-1.21,0-2.46,0-3.75,0c-1.29-0.01-2.64-0.06-4-0.32s-2.74-0.8-3.9-1.7c-1.18-0.87-2.14-2.05-2.9-3.35
							c-1.51-2.63-2.16-5.77-2.29-8.92c-0.17-3.66,0.07-7.2-0.37-10.49l-0.04-0.28l0.28-0.03c9.96-0.9,18.65-1.68,24.9-2.25
							c3.07-0.26,5.53-0.46,7.29-0.61c0.82-0.06,1.47-0.1,1.96-0.14C298.01,269.69,298.25,269.69,298.25,269.7z"/>
					</g>
				</g>
			</g>
			<g>
				<g>
					<g>
						<path style="fill:#263238;" d="M261.31,223.02c0.03,0.07-1.3,0.3-3.27,1.59c-1.94,1.27-4.39,3.85-5.87,7.78
							c-1.53,3.92-1.75,9.01-1.44,14.56c0.29,5.58,0.61,11.7,0.94,18.13c0.62,12.85,1.19,24.47,1.6,32.95
							c0.18,4.18,0.32,7.58,0.42,9.99c0.04,1.14,0.07,2.05,0.09,2.72c0.01,0.62,0.01,0.95-0.01,0.95c-0.02,0-0.05-0.32-0.1-0.94
							c-0.05-0.67-0.11-1.57-0.19-2.71c-0.14-2.41-0.35-5.8-0.6-9.98c-0.45-8.47-1.07-20.1-1.76-32.94
							c-0.32-6.43-0.62-12.55-0.9-18.13c-0.28-5.56-0.02-10.73,1.59-14.72c1.56-3.99,4.11-6.58,6.12-7.82
							c1-0.65,1.88-0.96,2.46-1.18c0.27-0.07,0.5-0.14,0.69-0.19C261.23,223.03,261.31,223.01,261.31,223.02z"/>
					</g>
				</g>
			</g>
			<g>
				<g>
					<g>
						<path style="fill:#263238;" d="M300.17,273.9c0.02,0.15-8.12,1.25-18.18,2.44c-10.06,1.2-18.23,2.05-18.25,1.9
							s8.12-1.25,18.18-2.44C291.98,274.6,300.15,273.75,300.17,273.9z"/>
					</g>
				</g>
			</g>
			<g>
				<g>
					<polygon style="fill:#FFFFFF;" points="270.36,247 285.53,245.32 285.53,238.12 280.84,242.93 280.1,239.81 275.45,243.52 
						275.45,240.73 					"/>
				</g>
			</g>
			<g style="opacity:0.3;">
				<g>
					<g>
						<path d="M295.83,295.58c-7.88,1.7-16.73,2.38-24.7,1.17c-3.38-0.51-5.54-4.75-6.53-8.03c0.29,3.6,0.12,10.73,2.94,12.97
							c2.16,1.72,4.34,2.42,7.1,2.37c5.06-0.09,10.11-0.78,15.01-2.03c1.62-0.42,3.28-0.92,4.57-2
							C295.51,298.97,296.34,297.18,295.83,295.58z"/>
					</g>
				</g>
			</g>
		</g>
		<g>
			<g>
				<g>
					<path style="fill:none;stroke:#FFFFFF;stroke-miterlimit:10;" d="M192.64,99.15"/>
				</g>
			</g>
		</g>
		<g>
			<g>
				<g>
					<path style="fill:#455A64;" d="M145.48,265.16c-12.24,7.69-21.1,19.92-27.11,33.08c-6.01,13.15-9.4,27.32-12.77,41.38
						l1.95,70.92c12.78-26.57,22.24-57.34,23.04-86.81c-3.33-0.02-6.65-0.04-9.98-0.06c6.56-1.57,11.73-6.85,14.8-12.85
						s4.35-12.74,5.59-19.36c-3.98,0.93-7.96,1.87-11.94,2.8C138,287.16,144.02,276.48,145.48,265.16z"/>
				</g>
			</g>
			<g style="opacity:0.3;">
				<g>
					<g>
						<path d="M145.48,265.16c-12.24,7.69-21.1,19.92-27.11,33.08c-6.01,13.15-9.4,27.32-12.77,41.38l1.95,70.92
							c12.78-26.57,22.24-57.34,23.04-86.81c-3.33-0.02-6.65-0.04-9.98-0.06c6.56-1.57,11.73-6.85,14.8-12.85s4.35-12.74,5.59-19.36
							c-3.98,0.93-7.96,1.87-11.94,2.8C138,287.16,144.02,276.48,145.48,265.16z"/>
					</g>
				</g>
			</g>
			<g>
				<g>
					<path style="fill:#455A64;" d="M106.72,427.26c0,0-35.54-35.98-38.24-72.93l13.05-1.09c0,0-14.96-8.14-14.27-13.46
						c0.69-5.31-0.59-25.11-0.59-25.11l12.18,1.99c0,0-9.32-3.73-11.03-10.72s-0.72-40.12-0.72-40.12s15.82,14.08,21.6,29.37
						s19.05,32.59,19.58,80.61C108.83,423.81,106.72,427.26,106.72,427.26z"/>
				</g>
			</g>
			<g>
				<g>
					<path style="fill:#455A64;" d="M123.41,429.54c0,0,33.06-26.24,38.36-56.65l-10.73-1.98c0,0,13.07-5.51,12.94-9.98
						c-0.13-4.46,2.56-20.77,2.56-20.77l-10.27,0.64c0,0,8.04-2.32,10.03-7.98c2-5.66,3.91-33.21,3.91-33.21
						s-14.28,10.37-20.34,22.56c-6.06,12.2-18.49,25.44-22.9,65.22C122.58,427.17,123.41,429.54,123.41,429.54z"/>
				</g>
			</g>
			<g>
				<g>
					<g>
						<path style="fill:#263238;" d="M78.75,298.79c0.01,0,0.06,0.13,0.15,0.39c0.09,0.29,0.22,0.67,0.38,1.17
							c0.33,1.06,0.8,2.57,1.4,4.51c0.61,1.96,1.34,4.36,2.14,7.15c0.81,2.8,1.75,5.97,2.7,9.51c1.98,7.06,4.15,15.51,6.45,24.92
							c2.25,9.42,4.58,19.82,6.8,30.78c2.19,10.97,4.06,21.46,5.62,31.02c1.52,9.57,2.78,18.21,3.68,25.48
							c0.49,3.63,0.85,6.93,1.18,9.82c0.34,2.89,0.6,5.38,0.79,7.42c0.19,2.02,0.34,3.59,0.45,4.7c0.04,0.52,0.08,0.92,0.1,1.22
							c0.02,0.28,0.03,0.42,0.02,0.42s-0.03-0.14-0.07-0.41c-0.04-0.3-0.09-0.7-0.16-1.22c-0.13-1.1-0.31-2.67-0.55-4.69
							c-0.22-2.04-0.51-4.52-0.89-7.41c-0.36-2.89-0.75-6.18-1.26-9.8c-0.95-7.26-2.25-15.89-3.79-25.45
							c-1.59-9.55-3.47-20.04-5.66-31c-2.21-10.95-4.53-21.35-6.75-30.77c-2.27-9.41-4.4-17.87-6.33-24.94
							c-0.93-3.54-1.84-6.73-2.62-9.53c-0.77-2.81-1.47-5.21-2.05-7.18c-0.56-1.95-1-3.47-1.3-4.53c-0.14-0.5-0.25-0.89-0.33-1.18
							C78.77,298.94,78.74,298.8,78.75,298.79z"/>
					</g>
				</g>
			</g>
			<g>
				<g>
					<path style="fill:#455A64;" d="M104.22,451.31c0,0-32.37-31.09-43.24-50.6l6.68-3.54c-4.96,1.25-10.28-0.48-14.45-3.44
						c-4.17-2.95-7.39-7.03-10.55-11.04l9-2.3c-8.5-1.64-16.29-6.69-21.24-13.79c10.92,0.87,21.16,5.98,29.81,12.71
						c7,5.45,13.09,11.94,18.98,18.61c2.87,3.25,5.44,6.76,7.64,10.49C92.68,418.26,103.21,438.99,104.22,451.31z"/>
				</g>
			</g>
			<g>
				<g>
					<g>
						<path style="fill:#263238;" d="M157.85,320.31c0.01,0-0.03,0.12-0.11,0.35c-0.09,0.25-0.22,0.59-0.38,1.01
							c-0.35,0.92-0.86,2.21-1.49,3.87c-0.66,1.68-1.46,3.73-2.36,6.13c-0.9,2.39-1.96,5.11-3.05,8.14
							c-2.24,6.04-4.8,13.27-7.52,21.34c-2.69,8.08-5.54,17-8.32,26.42c-2.76,9.43-5.2,18.48-7.3,26.73
							c-2.07,8.26-3.83,15.73-5.21,22.02c-0.72,3.14-1.3,6-1.83,8.5c-0.54,2.5-0.98,4.66-1.33,6.43c-0.36,1.74-0.64,3.1-0.84,4.06
							c-0.1,0.44-0.17,0.79-0.23,1.05c-0.06,0.24-0.09,0.36-0.1,0.36s0-0.13,0.04-0.37c0.04-0.27,0.1-0.62,0.18-1.06
							c0.17-0.97,0.42-2.34,0.74-4.08c0.32-1.77,0.73-3.94,1.24-6.45c0.51-2.51,1.06-5.37,1.75-8.52c1.33-6.31,3.05-13.79,5.1-22.06
							c2.08-8.27,4.5-17.32,7.26-26.76c2.78-9.43,5.64-18.36,8.36-26.43c2.75-8.07,5.35-15.29,7.64-21.31
							c1.12-3.02,2.2-5.73,3.13-8.11c0.93-2.39,1.76-4.43,2.45-6.09c0.68-1.64,1.21-2.92,1.59-3.83c0.18-0.41,0.32-0.74,0.43-0.99
							C157.79,320.42,157.85,320.31,157.85,320.31z"/>
					</g>
				</g>
			</g>
		</g>
		<g>
			<g>
				<g>
					<g>
						<g>
							<g>
								<path style="fill:#F1C72F;" d="M339.32,443.06c1.97-0.09,3.89,0.82,5.31,2.18c1.42,1.37,2.36,3.16,3.03,5.01
									c1.29,3.58,1.04,7.96,0.3,11.7c-4.09-1.09-6.89-5.12-8.18-7.25C337.74,451.33,336.09,444,339.32,443.06"/>
							</g>
						</g>
					</g>
				</g>
			</g>
		</g>
		<g>
			<g>
				<g>
					<g>
						<g>
							<g>
								<path style="fill:#F1C72F;" d="M354.04,465.92c-1.4-1.69-1.64-4.19-0.81-6.23c0.83-2.04,2.61-3.61,4.65-4.42
									c0.94-0.38,2.06-0.6,2.95-0.1c0.83,0.46,1.26,1.46,1.23,2.41c-0.02,0.95-0.43,1.85-0.93,2.66
									C359.42,463.01,357.26,465.38,354.04,465.92"/>
							</g>
						</g>
					</g>
				</g>
			</g>
		</g>
		<g>
			<g>
				<g>
					<g>
						<g>
							<g>
								<g>
									<path style="fill:#263238;" d="M355.5,478.14c-0.02,0-0.1-0.26-0.24-0.75c-0.15-0.53-0.35-1.23-0.58-2.06
										c-0.46-1.73-1.17-4.19-1.02-6.98c0.13-2.78,1.03-5.22,2.06-6.72c0.51-0.76,1-1.31,1.38-1.65c0.18-0.18,0.34-0.29,0.44-0.38
										c0.1-0.08,0.16-0.12,0.17-0.11c0.05,0.05-0.87,0.72-1.83,2.25c-0.97,1.5-1.82,3.9-1.95,6.63
										c-0.14,2.74,0.52,5.17,0.93,6.92c0.22,0.88,0.39,1.58,0.5,2.08C355.47,477.86,355.52,478.13,355.5,478.14z"/>
								</g>
							</g>
						</g>
					</g>
				</g>
			</g>
		</g>
		<g>
			<g>
				<g>
					<g>
						<g>
							<g>
								<g>
									<path style="fill:#263238;" d="M341.06,448.54c0.01,0,0.07,0.09,0.18,0.29c0.12,0.22,0.28,0.5,0.48,0.85
										c0.41,0.74,1,1.82,1.71,3.16c1.43,2.68,3.35,6.4,5.38,10.57c2.03,4.16,3.78,7.97,5,10.75c0.61,1.39,1.1,2.51,1.43,3.3
										c0.15,0.37,0.28,0.67,0.37,0.9c0.08,0.21,0.12,0.32,0.11,0.32s-0.06-0.1-0.16-0.3c-0.11-0.23-0.25-0.52-0.42-0.88
										c-0.37-0.8-0.88-1.91-1.51-3.26c-1.27-2.75-3.05-6.55-5.07-10.71c-2.03-4.16-3.92-7.9-5.3-10.6
										c-0.68-1.33-1.23-2.41-1.64-3.2c-0.18-0.36-0.32-0.65-0.44-0.87C341.1,448.65,341.05,448.54,341.06,448.54z"/>
								</g>
							</g>
						</g>
					</g>
				</g>
			</g>
		</g>
		<g>
			<g>
				<g>
					<g>
						<g>
							<g>
								<path style="fill:#F1C72F;" d="M350.11,470.42c-2.67-3.79-7.27-6.14-11.91-6.09c-1.18,0.01-2.58,0.33-3.01,1.43
									c-0.44,1.1,0.37,2.29,1.24,3.09c3.63,3.33,9.36,4.11,13.75,1.89"/>
							</g>
						</g>
					</g>
				</g>
			</g>
		</g>
		<g>
			<g>
				<g>
					<g>
						<g>
							<g>
								<g>
									<path style="fill:#263238;" d="M340.26,467.33c0-0.02,0.26-0.03,0.74-0.03c0.24,0,0.53-0.01,0.87,0.03
										c0.34,0.03,0.72,0.04,1.14,0.12c0.42,0.07,0.88,0.13,1.37,0.26c0.49,0.1,1,0.27,1.54,0.44c1.06,0.38,2.2,0.9,3.3,1.6
										c1.09,0.71,2.03,1.54,2.81,2.35c0.38,0.42,0.74,0.82,1.02,1.23c0.31,0.39,0.56,0.79,0.78,1.15
										c0.24,0.35,0.39,0.71,0.55,1.01c0.16,0.3,0.27,0.57,0.36,0.79c0.18,0.44,0.27,0.69,0.25,0.69
										c-0.06,0.03-0.42-0.96-1.33-2.38c-0.23-0.35-0.48-0.74-0.8-1.12c-0.29-0.4-0.65-0.79-1.03-1.2
										c-0.77-0.79-1.7-1.59-2.78-2.3c-1.08-0.69-2.19-1.21-3.23-1.59c-0.53-0.18-1.03-0.35-1.51-0.46
										c-0.48-0.14-0.93-0.21-1.34-0.29C341.31,467.36,340.25,467.39,340.26,467.33z"/>
								</g>
							</g>
						</g>
					</g>
				</g>
			</g>
		</g>
		<g>
			<g>
				<g>
					<g>
						<g>
							<polygon style="fill:#F5F5F5;" points="150.03,463 120.18,446 67.78,465.08 25.45,499.79 175.2,499.03 							"/>
						</g>
					</g>
				</g>
			</g>
			<g>
				<g>
					<g>
						<g>
							<polygon style="fill:#E0E0E0;" points="25.45,499.79 79.15,468.63 150.03,463 118.99,444.63 67.78,465.08 							"/>
						</g>
					</g>
				</g>
			</g>
			<g>
				<g>
					<g>
						<g>
							<polygon style="fill:#E0E0E0;" points="102.6,499.39 129.42,481.02 153.88,479.28 133.42,483.82 122.81,499.29 							"/>
						</g>
					</g>
				</g>
			</g>
			<g>
				<g>
					<g>
						<g>
							<g>
								<path style="fill:#263238;" d="M25.45,499.79c-0.01-0.01,0.06-0.07,0.18-0.18c0.15-0.13,0.34-0.29,0.58-0.5
									c0.54-0.46,1.3-1.1,2.27-1.92c2.03-1.69,4.94-4.11,8.63-7.18c7.46-6.15,18.01-14.85,30.49-25.15l0.03-0.03l0.04-0.02
									c11.24-4.56,23.95-9.72,37.36-15.17c4.69-1.9,9.29-3.76,13.77-5.58l0.15-0.06l0.14,0.08c11.33,6.81,21.87,13.14,31.08,18.68
									l0.05,0.03l0.03,0.05c7.53,10.86,13.78,19.88,18.18,26.22c2.16,3.14,3.86,5.62,5.04,7.34c0.56,0.83,0.99,1.47,1.31,1.94
									c0.29,0.44,0.43,0.68,0.43,0.68s-0.18-0.21-0.49-0.63c-0.33-0.46-0.79-1.09-1.37-1.9c-1.21-1.7-2.95-4.15-5.16-7.25
									c-4.44-6.31-10.76-15.28-18.37-26.08l0.08,0.08c-9.23-5.51-19.78-11.82-31.13-18.6l0.28,0.02
									c-4.48,1.82-9.08,3.68-13.77,5.58c-13.42,5.42-26.13,10.56-37.38,15.11l0.08-0.04c-12.55,10.22-23.15,18.86-30.64,24.97
									c-3.73,3.01-6.68,5.39-8.73,7.05c-1,0.79-1.77,1.41-2.33,1.85c-0.25,0.19-0.45,0.34-0.61,0.47
									C25.52,499.74,25.45,499.79,25.45,499.79z"/>
							</g>
						</g>
					</g>
				</g>
			</g>
			<g>
				<g>
					<g>
						<g>
							<g>
								<path style="fill:#263238;" d="M154.71,479.22c0,0.04-0.68,0.13-1.94,0.26c-1.36,0.12-3.15,0.28-5.34,0.48
									c-4.64,0.36-10.92,0.84-18,1.39l0.16-0.06c-0.94,0.65-1.94,1.33-2.94,2.02c-6.59,4.52-12.58,8.58-16.93,11.49
									c-2.12,1.4-3.86,2.56-5.17,3.42c-0.57,0.36-1.04,0.66-1.43,0.9c-0.33,0.2-0.51,0.3-0.52,0.28
									c-0.01-0.02,0.14-0.15,0.45-0.39c0.37-0.27,0.82-0.61,1.36-1c1.28-0.91,2.99-2.12,5.06-3.59
									c4.29-3.01,10.23-7.13,16.83-11.65c1.01-0.69,2-1.37,2.95-2.02l0.07-0.05l0.09-0.01c7.08-0.46,13.37-0.87,18.01-1.18
									c2.19-0.12,4-0.21,5.36-0.28C154.02,479.19,154.71,479.18,154.71,479.22z"/>
							</g>
						</g>
					</g>
				</g>
			</g>
		</g>
		<g>
			<g>
				<g>
					<g>
						<g>
							<path style="fill:#455A64;" d="M395.2,435.86c-2.39-13.57,3.2-28.25,14.01-36.8c0,0,3.07-1.04,2.72,2.35
								c-0.21,2.04,1.68,4.96,3.33,3.75c2.87-2.11,2.1-6.55,3.39-9.87c1.52-3.89,5.74-5.88,9.6-7.46
								c7.13-2.92,14.37-5.74,21.98-6.93c7.61-1.19,15.69-0.63,22.52,2.93c-1.76,3.33-3.52,6.67-5.27,10
								c-0.32,0.6-0.65,1.23-1.2,1.64c-0.92,0.7-2.2,0.62-3.35,0.51c-3.05-0.3-6.11-0.6-9.16-0.89c-1.33-0.13-3.06-0.02-3.47,1.25
								c-0.47,1.43,1.23,2.55,2.64,3.09c3.18,1.23,6.36,2.46,9.54,3.69c-3.14,4.63-7.9,7.98-12.99,10.3
								c-5.09,2.32-10.56,3.68-15.99,5.04c-1.73,0.43-3.59,0.86-5.28,0.27c-2.78-0.97-4.64-4.53-7.56-4.16
								c0.23,3.22,1.82,6.33,4.31,8.39C413.51,427.14,405.47,432.39,395.2,435.86"/>
						</g>
					</g>
				</g>
				<g>
					<g>
						<g>
							<g>
								<path style="fill:#263238;" d="M384.24,486c0.01,0,0.04-0.1,0.09-0.29c0.06-0.22,0.13-0.51,0.22-0.86
									c0.19-0.8,0.45-1.91,0.78-3.33c0.67-2.94,1.61-7.12,2.78-12.27c0.58-2.6,1.21-5.44,1.89-8.48c0.34-1.53,0.69-3.1,1.05-4.73
									c0.18-0.81,0.36-1.64,0.55-2.47c0.14-0.84,0.29-1.7,0.43-2.57c1.23-6.88,2.66-14.56,6.21-21.82
									c3.59-7.26,9.18-12.8,14.49-17.32c5.37-4.5,10.69-7.95,15.22-10.69c4.54-2.75,8.31-4.8,10.91-6.25
									c1.27-0.71,2.27-1.27,2.99-1.67c0.32-0.18,0.57-0.33,0.77-0.44c0.17-0.1,0.26-0.16,0.25-0.17c0-0.01-0.1,0.03-0.28,0.12
									c-0.21,0.1-0.47,0.23-0.8,0.4c-0.73,0.38-1.75,0.91-3.04,1.58c-2.62,1.39-6.43,3.4-11,6.11s-9.93,6.13-15.35,10.64
									c-2.7,2.26-5.41,4.79-7.96,7.66c-2.57,2.86-4.85,6.16-6.69,9.8c-3.59,7.36-5.01,15.08-6.21,21.98
									c-0.14,0.87-0.28,1.72-0.42,2.56c-0.18,0.84-0.36,1.66-0.54,2.47c-0.35,1.62-0.69,3.2-1.02,4.73
									c-0.66,3.05-1.27,5.89-1.83,8.49c-1.09,5.17-1.98,9.36-2.61,12.3c-0.29,1.43-0.52,2.55-0.68,3.35
									c-0.07,0.36-0.12,0.65-0.16,0.87C384.25,485.9,384.23,486,384.24,486z"/>
							</g>
						</g>
					</g>
				</g>
			</g>
			<g>
				<g>
					<g>
						<g>
							<g>
								<path style="fill:#455A64;" d="M387.15,391.75l-0.36,0.33c21.03-12.23,34.18-36.85,32.67-61.13
									c-3.49,0.46-5.39,4.15-7.22,7.15c-1.84,3-5.42,5.99-8.5,4.28c-2.61-1.45-2.61-5.4-1.05-7.95c1.56-2.55,4.17-4.26,6.16-6.49
									c4.69-5.23,5.62-13.01,4.13-19.88s-5.09-13.06-8.64-19.13c-9.47,2.26-17.89,8.65-22.62,17.16c2.82,2.18,5.76,4.51,7.07,7.83
									c1.31,3.31,0.21,7.85-3.15,9.02c-2.48,0.87-5.31-0.4-7.04-2.39c-1.73-1.99-2.59-4.56-3.42-7.05
									c-3.94,12.24-5.58,25.22-4.79,38.06c3.21-3.01,9.58,0.22,9.05,4.59c-0.54,4.37-7.5,5.96-9.89,2.26
									C373.15,370.53,379.18,381.93,387.15,391.75z M387.91,335.3c-0.07,1.17-0.96,2.18-2.02,2.69c-1.51,0.72-3.35,0.59-4.87-0.13
									s-2.73-1.97-3.65-3.38c-0.56-0.86-1.02-1.81-1.16-2.82c-0.14-1.02,0.09-2.12,0.78-2.88c0.68-0.76,1.86-1.11,2.79-0.67
									c2.66,1.05,4.32,1.86,6.37,3.85C387.08,332.87,387.99,334.01,387.91,335.3z"/>
							</g>
						</g>
					</g>
				</g>
				<g>
					<g>
						<g>
							<g>
								<path style="fill:#263238;" d="M379.67,485.89c0.01,0,0.02-0.13,0.04-0.38c0.02-0.28,0.05-0.65,0.08-1.12
									c0.06-1.02,0.15-2.46,0.27-4.3c0.24-3.77,0.59-9.17,1.02-15.82c0.92-13.35,2.3-31.8,4.3-52.12
									c1.97-20.33,4.19-38.7,5.98-51.96c0.87-6.64,1.65-12,2.19-15.7c0.26-1.83,0.46-3.26,0.6-4.27c0.06-0.47,0.11-0.83,0.14-1.11
									c0.03-0.25,0.04-0.38,0.03-0.38s-0.04,0.13-0.08,0.37c-0.05,0.28-0.11,0.64-0.2,1.1c-0.17,1-0.4,2.43-0.7,4.25
									c-0.6,3.7-1.45,9.05-2.37,15.68c-1.89,13.26-4.16,31.62-6.14,51.96c-2,20.33-3.33,38.79-4.15,52.15
									c-0.41,6.68-0.68,12.09-0.84,15.83c-0.07,1.85-0.13,3.29-0.16,4.31c-0.01,0.47-0.02,0.84-0.02,1.12
									C379.66,485.76,379.66,485.89,379.67,485.89z"/>
							</g>
						</g>
					</g>
				</g>
			</g>
		</g>
		<g>
			<g>
				<g>
					<g>
						<g>
							<polygon style="fill:#F5F5F5;" points="389.91,480.37 371.97,473.28 342.08,478.71 327.6,498.19 398.53,498.24 							"/>
						</g>
					</g>
				</g>
			</g>
			<g>
				<g>
					<g>
						<g>
							<path style="fill:#E0E0E0;" d="M342.08,478.71c0.87-0.16,47.82,1.66,47.82,1.66l-17.93-7.09L342.08,478.71z"/>
						</g>
					</g>
				</g>
			</g>
			<g>
				<g>
					<g>
						<g>
							<g>
								<path style="fill:#263238;" d="M327.6,498.19c-0.01-0.01,0.07-0.14,0.23-0.39c0.2-0.28,0.44-0.64,0.74-1.07
									c0.71-0.98,1.67-2.33,2.89-4.01c2.56-3.48,6.13-8.36,10.4-14.18l0.07-0.09l0.11-0.02c6.52-1.2,14.14-2.59,22.24-4.08
									c2.61-0.47,5.16-0.93,7.64-1.38l0.09-0.02l0.08,0.03c6.6,2.63,12.69,5.06,17.91,7.14l0.1,0.04l0.04,0.09
									c2.55,5.39,4.66,9.86,6.17,13.05c0.7,1.52,1.26,2.74,1.67,3.63c0.17,0.39,0.31,0.7,0.42,0.96c0.09,0.22,0.13,0.33,0.12,0.34
									s-0.08-0.1-0.19-0.31c-0.13-0.25-0.29-0.56-0.49-0.93c-0.44-0.88-1.05-2.08-1.8-3.57c-1.56-3.16-3.74-7.6-6.38-12.95
									l0.14,0.13c-5.23-2.05-11.34-4.44-17.95-7.04l0.17,0.02c-2.48,0.45-5.04,0.92-7.64,1.39c-8.11,1.46-15.73,2.83-22.26,4
									l0.18-0.11c-4.34,5.76-7.98,10.59-10.59,14.04c-1.26,1.64-2.27,2.96-3.01,3.92c-0.33,0.41-0.6,0.75-0.81,1.02
									C327.71,498.08,327.61,498.2,327.6,498.19z"/>
							</g>
						</g>
					</g>
				</g>
			</g>
		</g>
		<g>
			<g>
				<g>
					<path style="fill:#263238;" d="M493.89,499.25c0,0.15-109.35,0.28-244.22,0.28c-134.91,0-244.24-0.12-244.24-0.28
						c0-0.15,109.33-0.28,244.24-0.28C384.53,498.97,493.89,499.1,493.89,499.25z"/>
				</g>
			</g>
		</g>
	</g>
</g>
</svg>
